<?xml version="1.0" encoding="UTF-8"?>
<svg width="555px" height="416px" viewBox="0 0 555 416" version="1.1" xmlns="http://www.w3.org/2000/svg" xmlns:xlink="http://www.w3.org/1999/xlink">
    <!-- Generator: Sketch 64 (93537) - https://sketch.com -->
    <title>Background</title>
    <desc>Created with Sketch.</desc>
    <defs>
        <linearGradient x1="0.00298703626%" y1="50.0053415%" x2="100.008961%" y2="50.0053415%" id="linearGradient-1">
            <stop stop-color="#FF9800" offset="0%"></stop>
            <stop stop-color="#FFE0B2" offset="100%"></stop>
        </linearGradient>
        <linearGradient x1="0.00550994545%" y1="49.9955396%" x2="99.9926534%" y2="49.9955396%" id="linearGradient-2">
            <stop stop-color="#E91E63" offset="0%"></stop>
            <stop stop-color="#F8BBD0" offset="100%"></stop>
        </linearGradient>
        <linearGradient x1="-0.025683832%" y1="50%" x2="100.012842%" y2="50%" id="linearGradient-3">
            <stop stop-color="#FF9800" offset="0%"></stop>
            <stop stop-color="#FFE0B2" offset="100%"></stop>
        </linearGradient>
        <linearGradient x1="-0.00642095801%" y1="49.9812874%" x2="99.9678952%" y2="49.9812874%" id="linearGradient-4">
            <stop stop-color="#E91E63" offset="0%"></stop>
            <stop stop-color="#F8BBD0" offset="100%"></stop>
        </linearGradient>
        <linearGradient x1="50.0026816%" y1="0%" x2="50.0026816%" y2="99.9944947%" id="linearGradient-5">
            <stop stop-color="#E91E63" offset="0%"></stop>
            <stop stop-color="#FF9800" offset="100%"></stop>
        </linearGradient>
        <linearGradient x1="37.4375768%" y1="81.8950304%" x2="57.3634003%" y2="18.2202568%" id="linearGradient-6">
            <stop stop-color="#FF9800" offset="0%"></stop>
            <stop stop-color="#FFE0B2" offset="100%"></stop>
        </linearGradient>
        <linearGradient x1="0.00924675901%" y1="49.9976207%" x2="100.003699%" y2="49.9976207%" id="linearGradient-7">
            <stop stop-color="#00BCD4" offset="0%"></stop>
            <stop stop-color="#B2EBF2" offset="100%"></stop>
        </linearGradient>
        <linearGradient x1="-0.0282226769%" y1="50.0067841%" x2="100.021167%" y2="50.0067841%" id="linearGradient-8">
            <stop stop-color="#00BCD4" offset="0%"></stop>
            <stop stop-color="#B2EBF2" offset="100%"></stop>
        </linearGradient>
        <linearGradient x1="49.9980397%" y1="100.021167%" x2="49.9980397%" y2="-0.0282226769%" id="linearGradient-9">
            <stop stop-color="#00BCD4" offset="0%"></stop>
            <stop stop-color="#B2EBF2" offset="100%"></stop>
        </linearGradient>
        <linearGradient x1="100.021166%" y1="49.9788345%" x2="-0.0211655143%" y2="49.9788345%" id="linearGradient-10">
            <stop stop-color="#FF9800" offset="0%"></stop>
            <stop stop-color="#FFE0B2" offset="100%"></stop>
        </linearGradient>
        <linearGradient x1="0.00203249967%" y1="50.0003387%" x2="100.001016%" y2="50.0003387%" id="linearGradient-11">
            <stop stop-color="#FF9800" offset="0%"></stop>
            <stop stop-color="#E91E63" offset="100%"></stop>
        </linearGradient>
        <linearGradient x1="99.9788345%" y1="49.9858897%" x2="0.00705517144%" y2="49.9858897%" id="linearGradient-12">
            <stop stop-color="#00BCD4" offset="0%"></stop>
            <stop stop-color="#B2EBF2" offset="100%"></stop>
        </linearGradient>
        <linearGradient x1="99.9717793%" y1="50.0352759%" x2="8.02080131e-13%" y2="50.0352759%" id="linearGradient-13">
            <stop stop-color="#00BCD4" offset="0%"></stop>
            <stop stop-color="#B2EBF2" offset="100%"></stop>
        </linearGradient>
        <linearGradient x1="99.9929448%" y1="49.9929448%" x2="0.0211655143%" y2="49.9929448%" id="linearGradient-14">
            <stop stop-color="#E91E63" offset="0%"></stop>
            <stop stop-color="#F8BBD0" offset="100%"></stop>
        </linearGradient>
        <linearGradient x1="100.01411%" y1="49.9647241%" x2="-0.0282206858%" y2="49.9647241%" id="linearGradient-15">
            <stop stop-color="#E91E63" offset="0%"></stop>
            <stop stop-color="#F8BBD0" offset="100%"></stop>
        </linearGradient>
        <linearGradient x1="100.01411%" y1="50.0282207%" x2="-0.0282206858%" y2="50.0282207%" id="linearGradient-16">
            <stop stop-color="#00BCD4" offset="0%"></stop>
            <stop stop-color="#B2EBF2" offset="100%"></stop>
        </linearGradient>
        <linearGradient x1="50.0004759%" y1="100%" x2="50.0004759%" y2="0.00554805541%" id="linearGradient-17">
            <stop stop-color="#E91E63" offset="0%"></stop>
            <stop stop-color="#FF9800" offset="100%"></stop>
        </linearGradient>
        <linearGradient x1="95.0274044%" y1="99.9926026%" x2="95.0274044%" y2="-0.0018493518%" id="linearGradient-18">
            <stop stop-color="#E91E63" offset="0%"></stop>
            <stop stop-color="#FF9800" offset="100%"></stop>
        </linearGradient>
        <linearGradient x1="37.4358669%" y1="81.8966476%" x2="57.3665941%" y2="18.2181412%" id="linearGradient-19">
            <stop stop-color="#FF9800" offset="0%"></stop>
            <stop stop-color="#FFE0B2" offset="100%"></stop>
        </linearGradient>
        <linearGradient x1="50.0013568%" y1="99.9717773%" x2="50.0013568%" y2="-0.00705566923%" id="linearGradient-20">
            <stop stop-color="#FF9800" offset="0%"></stop>
            <stop stop-color="#FFE0B2" offset="100%"></stop>
        </linearGradient>
        <linearGradient x1="100.035276%" y1="49.9929448%" x2="-0.00705517144%" y2="49.9929448%" id="linearGradient-21">
            <stop stop-color="#E91E63" offset="0%"></stop>
            <stop stop-color="#F8BBD0" offset="100%"></stop>
        </linearGradient>
        <linearGradient x1="100%" y1="50.049031%" x2="-0.01481586%" y2="49.9999836%" id="linearGradient-22">
            <stop stop-color="#E91E63" offset="0%"></stop>
            <stop stop-color="#F8BBD0" offset="100%"></stop>
        </linearGradient>
    </defs>
    <g id="Forms" stroke="none" stroke-width="1" fill="none" fill-rule="evenodd">
        <g id="Contact" transform="translate(-317.000000, -641.000000)">
            <g id="Background" transform="translate(594.500000, 837.000000) scale(-1, 1) translate(-594.500000, -837.000000) translate(317.000000, 616.000000)">
                <g id="Group" transform="translate(218.000000, 37.000000)" fill="url(#linearGradient-1)">
                    <path d="M0.289180092,86.9321983 L0.289180092,46.0666486 C0.289180092,23.3204403 17.0178941,4.22494819 38.9986808,0.0343580251 L38.9986808,0.77121319 C39.1771204,0.762458475 39.354073,0.758081117 39.5325127,0.756621998 C45.3526181,0.756621998 50.070859,5.38786614 50.070859,11.0973993 C50.070859,14.9261279 47.9489146,18.2689699 44.7979683,20.0563908 C42.7890357,20.3000637 40.8485048,20.7640636 39.0001678,21.4250446 L38.9986808,21.4250446 L38.9986808,21.4250446 C28.7413769,25.0903519 21.3643857,34.7745256 21.3643857,46.0666486 L21.3643857,86.0129532 L21.2067641,86.0129532 C20.8350149,91.3912664 16.2714217,95.6431395 10.6951837,95.6431395 C5.44013701,95.6431395 1.08472338,91.8669392 0.289180092,86.9321983 Z" id="Path"></path>
                </g>
                <g id="Group" transform="translate(151.000000, 152.000000)" fill="#B2EBF2">
                    <path d="M21.6574126,10.3542406 C27.1918724,35.200577 49.2562522,53.7684825 75.6356594,53.7684825 C77.0563716,53.7684825 78.463861,53.7138233 79.8581276,53.6089365 C85.5145307,53.7167778 90.067568,58.3613394 90.067568,64.0754502 C90.067568,69.8560385 85.4058103,74.5434412 79.6553786,74.5434412 C79.4790752,74.5434412 79.3027717,74.5390094 79.1294066,74.5301457 L79.1294066,74.6232142 C77.9702113,74.6749189 76.8066083,74.7059418 75.6356594,74.7059418 C38.2049628,74.7059418 7.08446125,47.5491427 0.696398721,11.7635637 L0.694929526,11.7547 C0.674360787,11.5862903 0.659668831,11.4149261 0.647915266,11.2435618 C0.261516819,5.47479178 4.60005147,0.483069863 10.3372603,0.0960230614 C16.0744692,-0.292501018 21.0388812,4.06990052 21.4238105,9.8386706 C21.435564,10.0159439 21.44291,10.19174 21.4458484,10.3690134 L21.6574126,10.3542406 Z" id="Path"></path>
                </g>
                <g id="Group" transform="translate(228.000000, 152.000000) scale(-1, 1) translate(-228.000000, -152.000000) translate(217.000000, 141.000000)" fill="#00BCD4">
                    <path d="M10.9684216,0.791732078 C5.22983023,0.791732078 0.577671183,5.44389112 0.577671183,11.1824825 C0.577671183,16.9210739 5.22983023,21.573233 10.9684216,21.573233 C16.707013,21.573233 21.3577059,16.9210739 21.3577059,11.1824825 C21.3577059,5.44389112 16.707013,0.791732078 10.9684216,0.791732078" id="Path"></path>
                </g>
                <g id="Group" transform="translate(188.000000, 111.000000)" fill="url(#linearGradient-2)">
                    <path d="M40.7561742,23.40775 C50.8084047,23.40775 58.9563768,31.6860113 58.9563768,41.8991846 C58.9563768,52.1108942 50.8084047,60.3891555 40.7561742,60.3891555 C30.7039436,60.3891555 22.5544884,52.1108942 22.5544884,41.8991846 C22.5544884,31.6860113 30.7039436,23.40775 40.7561742,23.40775 Z M40.7561742,0.881102075 C63.0526089,0.881102075 81.1297169,19.2452013 81.1297169,41.8991846 C81.1297169,64.5517042 63.0526089,82.9158034 40.7561742,82.9158034 C18.4582564,82.9158034 0.381148312,64.5517042 0.381148312,41.8991846 C0.381148312,19.2452013 18.4582564,0.881102075 40.7561742,0.881102075 Z" id="Shape"></path>
                </g>
                <g id="Group" transform="translate(228.500000, 122.500000) scale(-1, 1) translate(-228.500000, -122.500000) translate(217.000000, 111.000000)" fill="#FF9800">
                    <path d="M11.3634463,0.359678285 C5.28409445,0.359678285 0.354771618,5.21323584 0.354771618,11.1990103 C0.354771618,17.1847847 5.28409445,22.0383422 11.3634463,22.0383422 C17.4427981,22.0383422 22.3706578,17.1847847 22.3706578,11.1990103 C22.3706578,5.21323584 17.4427981,0.359678285 11.3634463,0.359678285" id="Path"></path>
                </g>
                <g id="Group" transform="translate(249.000000, 52.000000)" fill="#00BCD4">
                    <path d="M58.5930446,42.0867384 C58.0706741,51.82277 50.1312372,59.5550994 40.410992,59.5550994 C30.3523932,59.5550994 22.1977753,51.276838 22.1977753,41.0636648 C22.1977753,32.3214344 28.1738711,24.9974563 36.2038324,23.0698626 C37.9549606,22.8444644 39.348443,22.8488553 40.410992,23.0654717 L36.8137593,0.210971877 C16.1875473,2.05806626 0.0103880483,19.6420535 0.0103880483,41.0636648 C0.0103880483,63.717648 18.0989482,82.0817473 40.410992,82.0817473 C62.2095694,82.0817473 79.974616,64.5504505 80.7789478,42.6180342 C80.8457281,42.1189382 80.8798602,41.6110604 80.8798602,41.0944009 C80.8798602,34.834478 75.881725,29.7586275 69.7141923,29.7586275 C63.5496276,29.7586275 58.5500084,34.834478 58.5500084,41.0944009 C58.5500084,41.4281073 58.5648484,41.7588865 58.5930446,42.0867384" id="Path"></path>
                </g>
                <g id="Group" transform="translate(278.000000, 51.000000)" fill="url(#linearGradient-3)">
                    <ellipse id="Oval" cx="11.5195018" cy="11.4635207" rx="10.8981121" ry="11.2186036"></ellipse>
                </g>
                <g id="Group" transform="translate(185.000000, 30.000000)" fill="url(#linearGradient-4)">
                    <ellipse id="Oval" cx="11.8371943" cy="11.8637853" rx="10.8981121" ry="11.2186036"></ellipse>
                </g>
                <g id="Group" transform="translate(81.000000, 233.000000)" fill="url(#linearGradient-5)">
                    <path d="M42.22871,59.1921845 C51.9647416,58.6701448 59.697071,50.7372175 59.697071,41.0216432 C59.697071,30.9694126 51.4188096,22.8214406 41.2056364,22.8214406 C32.463406,22.8214406 25.1394279,28.7937528 23.2118342,36.8186303 C22.986436,38.5671667 22.9908269,39.959767 23.2074433,41.0216432 L0.352943474,37.4266879 C2.20003786,16.8150177 19.7840251,0.648100437 41.2056364,0.648100437 C63.8596196,0.648100437 82.2237189,18.7252085 82.2237189,41.0216432 C82.2237189,62.8064197 64.6924221,80.5617021 42.7600058,81.3655246 C42.2609098,81.4307796 41.753032,81.4648901 41.2363725,81.4648901 C34.9764496,81.4648901 29.9005991,76.4699193 29.9005991,70.3077744 C29.9005991,64.1456295 34.9764496,59.1506586 41.2363725,59.1506586 C41.5715426,59.1506586 41.9008581,59.1654893 42.22871,59.1921845 Z" id="Path"></path>
                </g>
                <g id="Group" transform="translate(92.500000, 274.000000) scale(-1, 1) rotate(90.000000) translate(-92.500000, -274.000000) translate(81.000000, 262.000000)" fill="#00BCD4">
                    <path d="M11.4629399,0.967072743 C17.7544472,0.967072743 22.8564207,5.98997299 22.8564207,12.1856764 C22.8564207,18.3813797 17.7544472,23.40428 11.4629399,23.40428 C5.16996943,23.40428 0.0694590772,18.3813797 0.0694590772,12.1856764 C0.0694590772,5.98997299 5.16996943,0.967072743 11.4629399,0.967072743" id="Path"></path>
                </g>
                <g id="Group" transform="translate(334.520549, 135.230406) rotate(55.322418) translate(-334.520549, -135.230406) translate(307.020549, 74.730406)" fill="url(#linearGradient-6)">
                    <path d="M20.06499,3.5187071 C58.1258608,35.1852642 64.7979036,79.1429234 39.1713614,115.283113 C28.0979821,127.03209 13.6008496,115.64306 20.06499,105.518988 C36.6912783,77.4607202 42.3754164,52.2967233 7.70880914,22.1037469 C-10.2754794,8.29645803 8.64658135,-6.99469562 20.06499,3.5187071 Z" id="Path"></path>
                </g>
                <g id="Group" transform="translate(272.000000, 196.000000)" fill="url(#linearGradient-7)">
                    <path d="M40.3251324,0.322729366 C62.3923151,0.322729366 80.4467431,18.1545514 80.4467431,39.9478607 L80.4467431,114.692903 C80.4467431,136.486212 62.3923151,154.316568 40.3251324,154.316568 C18.2564658,154.316568 0.202037781,136.486212 0.202037781,114.692903 L0.202037781,39.9478607 C0.202037781,18.1545514 18.2564658,0.322729366 40.3251324,0.322729366 Z M40.3251324,21.2616002 C50.7309888,21.2616002 59.2462204,29.6696846 59.2462204,39.9478607 L59.2462204,114.692903 C59.2462204,124.969613 50.7309888,133.379163 40.3251324,133.379163 C29.917792,133.379163 21.4040444,124.969613 21.4040444,114.692903 L21.4040444,39.9478607 C21.4040444,29.6696846 29.917792,21.2616002 40.3251324,21.2616002 Z" id="Shape"></path>
                </g>
                <g id="Group" transform="translate(313.000000, 206.000000) scale(-1, 1) rotate(90.000000) translate(-313.000000, -206.000000) translate(302.000000, 195.000000)" fill="#FFE0B2">
                    <path d="M10.739699,0.25580654 C16.4768242,0.25580654 21.1289833,4.90796558 21.1289833,10.646557 C21.1289833,16.3836822 16.4768242,21.0358412 10.739699,21.0358412 C5.00110763,21.0358412 0.348948583,16.3836822 0.348948583,10.646557 C0.348948583,4.90796558 5.00110763,0.25580654 10.739699,0.25580654" id="Path"></path>
                </g>
                <g id="Group" transform="translate(396.000000, 208.000000)" fill="#00BCD4">
                    <path d="M0.451138099,40.7463775 C0.451138099,18.6361587 18.3883295,0.698967251 40.4985484,0.698967251 C62.6087672,0.698967251 80.5474427,18.6361587 80.5474427,40.7463775 C80.5474427,41.1767395 80.5370546,41.6056175 80.5236986,42.0330115 C79.7371749,47.0623109 75.3860667,50.9118248 70.1356503,50.9118248 C64.5706244,50.9118248 60.0162072,46.5889127 59.6437215,41.1173793 L59.5086768,41.1173793 C59.5116448,40.9942067 59.5131288,40.8710341 59.5131288,40.7463775 C59.5131288,30.2455447 51.0008652,21.7317971 40.4985484,21.7317971 C29.9962315,21.7317971 21.4839679,30.2455447 21.4839679,40.7463775 C21.4839679,51.2472104 29.9962315,59.760958 40.4985484,59.760958 C40.8932942,59.760958 41.2850721,59.7476019 41.6738819,59.7238578 C47.3234961,59.9034227 51.8497172,64.5409442 51.8497172,70.2350787 C51.8497172,76.0419977 47.1409633,80.7507516 41.3340443,80.7507516 C41.1544794,80.7507516 40.9778826,80.7462996 40.8012858,80.7373956 L40.8012858,80.7908198 C40.7003733,80.7908198 40.5994609,80.7937878 40.4985484,80.7937878 C18.3883295,80.7937878 0.451138099,62.8565964 0.451138099,40.7463775" id="Path"></path>
                </g>
                <g id="Group" transform="translate(278.000000, 387.000000)" fill="url(#linearGradient-8)">
                    <path d="M10.6964068,0.412477474 C16.4115394,0.412477474 21.0871572,5.01174554 21.0871572,10.6335539 L21.0871572,43.3404216 C21.0871572,48.9607878 16.4115394,53.5600558 10.6964068,53.5600558 C4.98127411,53.5600558 0.307122508,48.9607878 0.307122508,43.3404216 L0.307122508,10.6335539 C0.307122508,5.01174554 4.98127411,0.412477474 10.6964068,0.412477474 Z" id="Path"></path>
                </g>
                <g id="Group" transform="translate(345.000000, 419.000000)" fill="url(#linearGradient-9)">
                    <path d="M0.0481896414,10.8936469 C0.0481896414,5.17998043 4.70506135,0.504362657 10.3958199,0.504362657 L101.437735,0.504362657 C107.128493,0.504362657 111.785365,5.17998043 111.785365,10.8936469 C111.785365,16.6087796 107.128493,21.2843974 101.437735,21.2843974 L10.3958199,21.2843974 C4.70506135,21.2843974 0.0481896414,16.6087796 0.0481896414,10.8936469 Z" id="Path"></path>
                </g>
                <g id="Group" transform="translate(447.000000, 430.000000) rotate(-90.000000) translate(-447.000000, -430.000000) translate(436.000000, 419.000000)" fill="url(#linearGradient-10)">
                    <circle id="Oval" cx="10.9420306" cy="10.8936469" r="10.3907504"></circle>
                </g>
                <g id="Group" transform="translate(300.000000, 267.000000)" fill="url(#linearGradient-11)" fill-rule="nonzero">
                    <path d="M21.7980173,70.4768854 C24.7072073,82.0940828 30.2597578,88.5990126 36.3394871,91.0587987 C39.0306372,92.1478197 41.8785969,92.4616796 44.6384445,92.0938066 C47.4266672,91.7200943 50.1715805,90.6164751 52.6193025,88.8807566 C58.006083,85.061884 61.7724985,78.1686438 61.5021887,69.0783839 L61.5021887,68.6331407 C61.9994989,43.220704 73.2688767,27.2226057 88.5675125,16.8900444 C102.63706,7.38811709 119.780075,3.18093403 134.587374,0.776620884 C135.416225,0.573706781 136.282411,0.464220754 137.175478,0.464220754 C143.019246,0.464220754 147.757881,5.09766941 147.757881,10.8099204 C147.757881,16.2404273 143.476234,20.6943189 138.03121,21.1205845 C125.601442,23.1365872 111.403459,26.5364933 100.556721,33.8632982 C90.4477334,40.689387 82.9880803,51.4379952 82.5908295,68.7513856 C83.0060014,85.2253831 75.5866708,98.1199175 65.0206957,105.611681 C59.7922182,109.318148 53.7528114,111.697645 47.4490685,112.541417 C41.1154572,113.388109 34.5548454,112.655282 28.3198,110.132724 C16.4425987,105.328477 5.97966985,94.190099 1.25447619,75.3439043 C0.96176508,74.3950254 0.803462132,73.3892137 0.803462132,72.3483666 C0.803462132,66.6346558 5.5420966,62.0026669 11.3873583,62.0026669 C16.5785002,62.0026669 20.8974826,65.6580404 21.7980173,70.4768854 Z" id="Path"></path>
                </g>
                <g id="Group" transform="translate(437.500000, 278.000000) rotate(-90.000000) translate(-437.500000, -278.000000) translate(427.000000, 267.000000)" fill="url(#linearGradient-12)">
                    <ellipse id="Oval" cx="10.4885354" cy="11.1223695" rx="10.4143658" ry="10.3907504"></ellipse>
                </g>
                <g id="Group" transform="translate(313.000000, 339.000000) scale(-1, 1) rotate(90.000000) translate(-313.000000, -339.000000) translate(302.000000, 328.000000)" fill="#E91E63">
                    <path d="M11.1795502,0.505828828 C16.9166754,0.505828828 21.5703006,5.15798787 21.5703006,10.8951131 C21.5703006,16.6337045 16.9166754,21.2858635 11.1795502,21.2858635 C5.44095878,21.2858635 0.788799737,16.6337045 0.788799737,10.8951131 C0.788799737,5.15798787 5.44095878,0.505828828 11.1795502,0.505828828" id="Path"></path>
                </g>
                <g id="Group" transform="translate(228.000000, 262.000000)" fill="#F8BBD0">
                    <path d="M0.577571823,47.0467971 C0.577571823,20.7886489 22.4423677,0.0839211227 48.6359903,0.0839211227 C78.259501,0.0839211227 102.803342,27.5318779 95.2726936,56.5946798 C93.5903305,60.1214548 89.9738423,62.5613712 85.7827442,62.5613712 C79.9862927,62.5613712 75.2872275,57.894792 75.2872275,52.1398837 C75.2872275,50.4220884 75.5375087,48.7837117 75.5375087,47.0467971 C75.5375087,32.714678 63.4929147,21.0960284 48.6359903,21.0960284 C33.7790659,21.0960284 21.7359529,32.714678 21.7359529,47.0467971 C21.7359529,56.6152699 27.102928,64.9718733 35.0911906,69.4722616 C40.2123274,73.0784552 39.686589,77.1155683 39.686589,78.190661 C39.686589,83.9470401 34.9875239,88.6136193 29.1910723,88.6136193 C28.2047573,88.6136193 27.7856475,88.8092244 26.0529321,88.4944913 C10.9916361,80.6423432 0.577571823,65.1674784 0.577571823,47.0467971" id="Path"></path>
                </g>
                <g id="Group" transform="translate(463.500000, 278.000000) rotate(-90.000000) translate(-463.500000, -278.000000) translate(453.000000, 267.000000)" fill="url(#linearGradient-13)">
                    <ellipse id="Oval" cx="10.4194687" cy="11.2997762" rx="10.4143658" ry="10.3907504"></ellipse>
                </g>
                <g id="Group" transform="translate(464.000000, 248.000000) rotate(-90.000000) translate(-464.000000, -248.000000) translate(453.000000, 237.000000)" fill="url(#linearGradient-14)">
                    <circle id="Oval" cx="10.6458641" cy="11.2807159" r="10.3907504"></circle>
                </g>
                <g id="Group" transform="translate(433.500000, 185.000000) rotate(90.000000) translate(-433.500000, -185.000000) translate(422.500000, 174.500000)" fill="url(#linearGradient-15)">
                    <circle id="Oval" cx="11.0769182" cy="10.3906787" r="10.3907504"></circle>
                </g>
                <g id="Group" transform="translate(59.000000, 67.000000)" fill="#B2EBF2">
                    <path d="M42.678428,0.74163703 C68.9213837,1.05969086 89.3507007,22.948243 89.0346622,48.8703626 C88.6774652,78.1855449 60.9498635,102.14218 31.9948565,94.3388685 C28.489034,92.6298788 26.0944911,89.0213603 26.1459392,84.8749351 C26.2150267,79.1382407 30.936495,74.5447813 36.6883958,74.6151343 C38.4038234,74.6356539 40.038404,74.9024087 41.7744109,74.9229283 C56.0990399,75.0973449 67.8556724,63.3190936 68.0350059,48.6153333 C68.2143394,33.9130387 56.7472864,21.8533757 42.4241272,21.6804248 C32.862125,21.5646356 24.4437411,26.7751488 19.8501581,34.6253621 C16.1841115,39.6497331 12.1564579,39.081047 11.081927,39.0678558 C5.33002617,38.9975029 0.721743754,34.2911857 0.792301188,28.555957 C0.80406076,27.5783446 0.612967709,27.1606241 0.949585468,25.4516344 C8.9784335,10.6394134 24.5701565,0.521784156 42.678428,0.74163703" id="Path"></path>
                </g>
                <g id="Group" transform="translate(434.000000, 155.000000) rotate(-90.000000) translate(-434.000000, -155.000000) translate(423.000000, 144.000000)" fill="url(#linearGradient-16)">
                    <circle id="Oval" cx="11.0769182" cy="10.9405644" r="10.3907504"></circle>
                </g>
                <g id="Group" transform="translate(23.000000, 113.000000)" fill="url(#linearGradient-17)">
                    <path d="M0.107979954,40.5239894 C0.107979954,18.4568067 18.053371,0.402378713 39.9872822,0.402378713 L115.21455,0.402378713 C137.149936,0.402378713 155.095327,18.4568067 155.095327,40.5239894 C155.095327,62.592656 137.149936,80.647084 115.21455,80.647084 L39.9872822,80.647084 C18.053371,80.647084 0.107979954,62.592656 0.107979954,40.5239894 Z M21.1804652,40.5239894 C21.1804652,30.1181329 29.6442704,21.6029013 39.9872822,21.6029013 L115.216025,21.6029013 C125.559037,21.6029013 134.022842,30.1181329 134.022842,40.5239894 C134.022842,50.9313298 125.559037,59.4450774 115.216025,59.4450774 L39.9872822,59.4450774 C29.6442704,59.4450774 21.1804652,50.9313298 21.1804652,40.5239894 Z" id="Shape"></path>
                </g>
                <g id="Group" transform="translate(33.500000, 154.000000) scale(-1, 1) translate(-33.500000, -154.000000) translate(23.000000, 143.000000)" fill="#00BCD4">
                    <path d="M10.5135169,0.315919531 C4.76188326,0.315919531 0.10062063,4.96807858 0.10062063,10.7052038 C0.10062063,16.4437952 4.76188326,21.0959542 10.5135169,21.0959542 C16.2651506,21.0959542 20.9278827,16.4437952 20.9278827,10.7052038 C20.9278827,4.96807858 16.2651506,0.315919531 10.5135169,0.315919531" id="Path"></path>
                </g>
                <g id="Group" transform="translate(167.500000, 153.500000) scale(-1, 1) translate(-167.500000, -153.500000) translate(156.000000, 142.000000)" fill="#FF9800">
                    <path d="M11.1454382,0.379271655 C5.0660864,0.379271655 0.138226715,5.23282921 0.138226715,11.2186036 C0.138226715,17.204378 5.0660864,22.0579356 11.1454382,22.0579356 C17.2247901,22.0579356 22.1541129,17.204378 22.1541129,11.2186036 C22.1541129,5.23282921 17.2247901,0.379271655 11.1454382,0.379271655" id="Path"></path>
                </g>
                <g id="Group" transform="translate(309.000000, 97.000000)" fill="#FFE0B2">
                    <path d="M8.12134216,97.6873331 C9.45284578,97.6545382 10.7769025,97.5919295 12.092023,97.4980166 L12.1128743,97.500998 L12.1128743,97.4980166 C54.6465212,94.468952 88.2170935,58.9773187 88.2170935,15.6327758 C88.2170935,14.4461934 88.1858166,13.2670644 88.1366671,12.0924075 L88.1753909,12.0894261 C88.1545397,11.9135257 88.1381565,11.7361346 88.1262415,11.5572529 C87.7345352,5.73614201 92.1326674,0.699129574 97.9486871,0.308571049 C103.655982,-0.0760247511 108.609652,4.15751041 109.160722,9.81762766 C109.267957,11.7420973 109.326043,13.6814738 109.326043,15.6327758 C109.326043,71.3171793 65.2642945,116.69203 10.1334914,118.756624 L10.1573214,118.510662 C9.98008547,118.503208 9.80136015,118.491283 9.62412421,118.474885 C3.8200195,117.933768 -0.44704747,112.786445 0.0935966172,106.97726 C0.522537381,102.36211 3.85725394,98.7188847 8.12134216,97.6873331" id="Path"></path>
                </g>
                <g id="Group" transform="translate(395.000000, 299.000000)" fill="url(#linearGradient-18)">
                    <path d="M0.651106253,40.4883732 C0.651106253,18.4211905 18.4120001,0.366762548 40.1204082,0.366762548 L81.3576242,0.366762548 L81.3576242,21.5672852 L40.1204082,21.5672852 C29.8837332,21.5672852 21.5069447,30.0825168 21.5069447,40.4883732 C21.5069447,50.8957136 29.8837332,59.4094612 40.1204082,59.4094612 L81.3576242,59.4094612 L81.3576242,80.6114678 L40.1204082,80.6114678 C18.4120001,80.6114678 0.651106253,62.5570398 0.651106253,40.4883732 Z" id="Path"></path>
                    <path d="M78.8854017,40.4883732 C78.8854017,18.4211905 96.6462956,0.366762548 118.354704,0.366762548 L159.59192,0.366762548 L159.59192,21.5672852 L118.354704,21.5672852 C108.118029,21.5672852 99.7412401,30.0825168 99.7412401,40.4883732 C99.7412401,50.8957136 108.118029,59.4094612 118.354704,59.4094612 L159.59192,59.4094612 L159.59192,80.6114678 L118.354704,80.6114678 C96.6462956,80.6114678 78.8854017,62.5570398 78.8854017,40.4883732 Z" id="Path" transform="translate(119.238661, 40.489115) scale(-1, 1) translate(-119.238661, -40.489115) "></path>
                </g>
                <g id="Group" transform="translate(403.500000, 339.500000) scale(-1, 1) translate(-403.500000, -339.500000) translate(392.000000, 328.000000)" fill="#FF9800">
                    <path d="M11.2413141,0.345683021 C5.16196228,0.345683021 0.232639457,5.19924058 0.232639457,11.185015 C0.232639457,17.1707894 5.16196228,22.024347 11.2413141,22.024347 C17.320666,22.024347 22.2485257,17.1707894 22.2485257,11.185015 C22.2485257,5.19924058 17.320666,0.345683021 11.2413141,0.345683021" id="Path"></path>
                </g>
                <g id="Group" transform="translate(142.410585, 65.211735) rotate(-40.142279) translate(-142.410585, -65.211735) translate(114.910585, 4.211735)" fill="url(#linearGradient-19)">
                    <path d="M19.7991473,4.43569111 C57.8600108,36.1022421 64.5320523,80.0584237 38.905515,116.198606 C27.8321378,127.94905 13.3350081,116.560022 19.7991473,106.434483 C36.4254324,78.37769 42.1110439,53.2136979 7.44444327,23.0207273 C-10.5413163,9.21197195 8.38074081,-6.0777096 19.7991473,4.43569111 Z" id="Path"></path>
                </g>
                <g id="Group" transform="translate(0.000000, 218.000000)" fill="url(#linearGradient-20)">
                    <path d="M0.461246179,10.7660901 C0.461246179,5.05095742 5.14568587,0.375339652 10.8701329,0.375339652 L44.1826833,0.375339652 C49.9085992,0.375339652 54.5930389,5.05095742 54.5930389,10.7660901 C54.5930389,16.4797566 49.9085992,21.1553744 44.1826833,21.1553744 L10.8701329,21.1553744 C5.14568587,21.1553744 0.461246179,16.4797566 0.461246179,10.7660901 Z" id="Path"></path>
                </g>
                <g id="Group" transform="translate(436.500000, 124.000000) rotate(90.000000) translate(-436.500000, -124.000000) translate(426.000000, 113.000000)" fill="url(#linearGradient-21)">
                    <ellipse id="Oval" cx="10.4746154" cy="10.7418581" rx="10.4143658" ry="10.3907504"></ellipse>
                </g>
                <g id="Group" transform="translate(190.000000, 229.000000)" fill="#E91E63">
                    <path d="M69.7091971,20.7959654 C44.6492635,23.7506804 24.1125352,43.5085298 21.4489837,69.3304836 C21.3069472,70.7211077 21.2176252,72.1045041 21.1810179,73.4792272 C20.5030496,79.005585 15.4644127,83.0025453 9.82980802,82.4358876 C4.12931009,81.8634478 -0.0234287097,76.834361 0.556431856,71.2068143 C0.575467682,71.0333477 0.597432097,70.8627722 0.623789396,70.6921966 L0.533003146,70.6835233 C0.597432097,69.5429802 0.683825465,68.4009915 0.802433307,67.2546662 C4.58031275,30.6170679 34.5017036,2.8450601 70.4354871,0.138980633 L70.4442729,0.137013696 C70.6126668,0.136089523 70.7825249,0.137013696 70.9538473,0.143317299 C76.6807026,0.337021705 81.1643719,5.07844299 80.9681564,10.7320096 C80.771941,16.3855763 75.9690555,20.8133121 70.2422003,20.6181621 C70.0650207,20.6123799 69.8907696,20.602261 69.7165186,20.5878055 L69.7091971,20.7959654 Z" id="Path"></path>
                </g>
                <g id="Group" transform="translate(92.574874, 35.612285) rotate(48.002507) translate(-92.574874, -35.612285) translate(81.574874, 25.112285)" fill="url(#linearGradient-22)">
                    <ellipse id="Oval" cx="11.0778202" cy="10.4766658" rx="10.4496673" ry="10.4120248"></ellipse>
                </g>
            </g>
        </g>
    </g>
</svg>