<?xml version="1.0" encoding="UTF-8"?>
<svg width="294px" height="447px" viewBox="0 0 294 447" version="1.1" xmlns="http://www.w3.org/2000/svg" xmlns:xlink="http://www.w3.org/1999/xlink">
    <!-- Generator: Sketch 64 (93537) - https://sketch.com -->
    <title>Decoration</title>
    <desc>Created with Sketch.</desc>
    <defs>
        <linearGradient x1="50.0004759%" y1="100%" x2="50.0004759%" y2="0.00554805541%" id="linearGradient-1">
            <stop stop-color="#E91E63" offset="0%"></stop>
            <stop stop-color="#FF9800" offset="100%"></stop>
        </linearGradient>
        <linearGradient x1="37.5134858%" y1="81.8966476%" x2="57.3210846%" y2="18.2181412%" id="linearGradient-2">
            <stop stop-color="#FF9800" offset="0%"></stop>
            <stop stop-color="#FFE0B2" offset="100%"></stop>
        </linearGradient>
        <linearGradient x1="50.0013568%" y1="99.9717773%" x2="50.0013568%" y2="-0.00705566923%" id="linearGradient-3">
            <stop stop-color="#FF9800" offset="0%"></stop>
            <stop stop-color="#FFE0B2" offset="100%"></stop>
        </linearGradient>
        <linearGradient x1="100%" y1="50.0493358%" x2="-0.01481586%" y2="49.9999835%" id="linearGradient-4">
            <stop stop-color="#E91E63" offset="0%"></stop>
            <stop stop-color="#F8BBD0" offset="100%"></stop>
        </linearGradient>
        <linearGradient x1="50.0026816%" y1="0%" x2="50.0026816%" y2="99.9944947%" id="linearGradient-5">
            <stop stop-color="#E91E63" offset="0%"></stop>
            <stop stop-color="#FF9800" offset="100%"></stop>
        </linearGradient>
        <linearGradient x1="50.0013568%" y1="99.9717773%" x2="50.0013568%" y2="-0.00705566923%" id="linearGradient-6">
            <stop stop-color="#FF9800" offset="0%"></stop>
            <stop stop-color="#FFE0B2" offset="100%"></stop>
        </linearGradient>
    </defs>
    <g id="Page-1" stroke="none" stroke-width="1" fill="none" fill-rule="evenodd">
        <g id="Decoration" transform="translate(0.000000, -15.000000)">
            <g id="Group-3" transform="translate(175.000000, 0.000000)">
                <g id="Group" transform="translate(37.000000, 41.711805)" fill="#B2EBF2">
                    <path d="M27.0296711,0.47124853 C43.6502097,0.673345231 56.5887771,14.5816961 56.3886194,31.0530429 C56.1623946,49.6803983 38.6015802,64.9028434 20.2634091,59.9444893 C18.0430549,58.8585688 16.526511,56.565656 16.5590948,53.9309483 C16.6028502,50.2857571 19.5931135,47.3669965 23.235984,47.4116999 C24.3224215,47.4247384 25.3576559,47.5942388 26.4571269,47.6072773 C35.529392,47.7181046 42.9752592,40.2340074 43.0888371,30.890993 C43.2024149,21.54891 35.939948,13.8859992 26.8686139,13.7761033 C20.8126791,13.7025289 15.481036,17.0133758 12.5717668,22.0015321 C10.2499373,25.1941012 7.69909002,24.8327486 7.01855377,24.8243667 C3.37568324,24.7796633 0.457104377,21.7891909 0.501790752,18.144931 C0.509238481,17.5237398 0.388212883,17.2583132 0.60140413,16.1723927 C5.68634122,6.76046063 15.5610991,0.331550349 27.0296711,0.47124853" id="Path"></path>
                </g>
                <g id="Group" transform="translate(15.000000, 71.711805)" fill="url(#linearGradient-1)">
                    <path d="M0.0678335608,25.5151044 C0.0678335608,11.6209524 11.3412202,0.25334956 25.1202158,0.25334956 L72.3783713,0.25334956 C86.1582934,0.25334956 97.4316801,11.6209524 97.4316801,25.5151044 C97.4316801,39.4101908 86.1582934,50.7777936 72.3783713,50.7777936 L25.1202158,50.7777936 C11.3412202,50.7777936 0.0678335608,39.4101908 0.0678335608,25.5151044 Z M13.3056769,25.5151044 C13.3056769,18.9632689 18.6226827,13.6018268 25.1202158,13.6018268 L72.3792979,13.6018268 C78.876831,13.6018268 84.1938368,18.9632689 84.1938368,25.5151044 C84.1938368,32.0678743 78.876831,37.428382 72.3792979,37.428382 L25.1202158,37.428382 C18.6226827,37.428382 13.3056769,32.0678743 13.3056769,25.5151044 Z" id="Shape"></path>
                </g>
                <g id="Group" transform="translate(21.500000, 97.711805) scale(-1, 1) translate(-21.500000, -97.711805) translate(15.000000, 90.711805)" fill="#00BCD4">
                    <path d="M6.50836761,0.201039702 C2.94783249,0.201039702 0.0622889616,3.16150455 0.0622889616,6.81240242 C0.0622889616,10.4642333 2.94783249,13.4246982 6.50836761,13.4246982 C10.0689027,13.4246982 12.955356,10.4642333 12.955356,6.81240242 C12.955356,3.16150455 10.0689027,0.201039702 6.50836761,0.201039702" id="Path"></path>
                </g>
                <g id="Group" transform="translate(89.536482, 41.500000) rotate(-40.142279) translate(-89.536482, -41.500000) translate(72.036482, 3.000000)" fill="url(#linearGradient-2)">
                    <path d="M13.1535633,2.81528632 C37.2244878,22.9043897 41.4441032,50.789974 25.2370499,73.717127 C18.2338871,81.1715507 9.06543203,73.9464078 13.1535633,67.5228159 C23.6685652,49.7237249 27.2643303,33.7598127 5.3400478,14.6055414 C-6.0347299,5.84533527 5.93219273,-3.85436312 13.1535633,2.81528632 Z" id="Path"></path>
                </g>
                <g id="Group" transform="translate(0.000000, 138.711805)" fill="url(#linearGradient-3)">
                    <path d="M0.293520295,6.85114824 C0.293520295,3.21424563 3.27452737,0.238852506 6.91735728,0.238852506 L28.116253,0.238852506 C31.7600177,0.238852506 34.7410248,3.21424563 34.7410248,6.85114824 C34.7410248,10.4871178 31.7600177,13.462511 28.116253,13.462511 L6.91735728,13.462511 C3.27452737,13.462511 0.293520295,10.4871178 0.293520295,6.85114824 Z" id="Path"></path>
                </g>
                <g id="Group" transform="translate(58.325313, 22.794912) rotate(48.002507) translate(-58.325313, -22.794912) translate(51.325313, 15.794912)" fill="url(#linearGradient-4)">
                    <ellipse id="Oval" cx="7.00595798" cy="6.64634692" rx="6.60870851" ry="6.60533705"></ellipse>
                </g>
            </g>
            <g id="Group-7" transform="translate(50.000000, 377.000000) scale(-1, 1) rotate(90.000000) translate(-50.000000, -377.000000) translate(-35.000000, 327.000000)">
                <g id="Group" transform="translate(83.000000, 15.000000)" fill="url(#linearGradient-5)">
                    <path d="M44.2638286,61.3577522 C54.4690665,60.8166135 62.5740382,52.5934572 62.5740382,42.522435 C62.5740382,32.1024399 53.8968245,23.6563713 43.1914502,23.6563713 C34.0279075,23.6563713 26.3509666,29.8471828 24.3304768,38.1656534 C24.094216,39.9781606 24.0988185,41.4217097 24.3258743,42.522435 L0.369952798,38.795957 C2.30606378,17.4302013 20.7374721,0.671811428 43.1914502,0.671811428 C66.9371917,0.671811428 86.1863077,19.4102771 86.1863077,42.522435 C86.1863077,65.1042155 67.8101292,83.5090815 44.820729,84.3423121 C44.2975801,84.4099545 43.7652263,84.445313 43.2236676,84.445313 C36.6620616,84.445313 31.3415918,79.2675993 31.3415918,72.88001 C31.3415918,66.4924208 36.6620616,61.3147071 43.2236676,61.3147071 C43.5749904,61.3147071 43.9201766,61.3300804 44.2638286,61.3577522 Z" id="Path"></path>
                </g>
                <g id="Group" transform="translate(96.000000, 57.000000) scale(-1, 1) rotate(90.000000) translate(-96.000000, -57.000000) translate(83.500000, 44.500000)" fill="#00BCD4">
                    <path d="M12.4597173,0.0476621381 C19.2983122,0.0476621381 24.8439355,5.48913741 24.8439355,12.2011494 C24.8439355,18.9131614 19.2983122,24.3546367 12.4597173,24.3546367 C5.61953199,24.3546367 0.0754989969,18.9131614 0.0754989969,12.2011494 C0.0754989969,5.48913741 5.61953199,0.0476621381 12.4597173,0.0476621381" id="Path"></path>
                </g>
                <g id="Group" fill="url(#linearGradient-6)">
                    <path d="M0.478018767,11.2554578 C0.478018767,5.2805464 5.33280172,0.392400545 11.2654104,0.392400545 L45.7893263,0.392400545 C51.7234574,0.392400545 56.5782404,5.2805464 56.5782404,11.2554578 C56.5782404,17.2288364 51.7234574,22.1169823 45.7893263,22.1169823 L11.2654104,22.1169823 C5.33280172,22.1169823 0.478018767,17.2288364 0.478018767,11.2554578 Z" id="Path"></path>
                </g>
            </g>
        </g>
    </g>
</svg>