<?xml version="1.0" encoding="UTF-8"?>
<svg width="329px" height="234px" viewBox="0 0 329 234" version="1.1" xmlns="http://www.w3.org/2000/svg" xmlns:xlink="http://www.w3.org/1999/xlink">
    <!-- Generator: Sketch 64 (93537) - https://sketch.com -->
    <title>Group 10</title>
    <desc>Created with Sketch.</desc>
    <defs>
        <linearGradient x1="-16.9307748%" y1="72.8601099%" x2="100%" y2="50%" id="linearGradient-1">
            <stop stop-color="#FFE0B2" offset="0%"></stop>
            <stop stop-color="#FF9800" offset="100%"></stop>
        </linearGradient>
        <linearGradient x1="95.0274044%" y1="99.9926026%" x2="95.0274044%" y2="-0.0018493518%" id="linearGradient-2">
            <stop stop-color="#E91E63" offset="0%"></stop>
            <stop stop-color="#FF9800" offset="100%"></stop>
        </linearGradient>
        <linearGradient x1="99.9788345%" y1="49.9858897%" x2="0.00705517144%" y2="49.9858897%" id="linearGradient-3">
            <stop stop-color="#00BCD4" offset="0%"></stop>
            <stop stop-color="#B2EBF2" offset="100%"></stop>
        </linearGradient>
        <linearGradient x1="99.9717793%" y1="50.0352759%" x2="8.02080131e-13%" y2="50.0352759%" id="linearGradient-4">
            <stop stop-color="#00BCD4" offset="0%"></stop>
            <stop stop-color="#B2EBF2" offset="100%"></stop>
        </linearGradient>
        <linearGradient x1="99.9929448%" y1="49.9929448%" x2="0.0211655143%" y2="49.9929448%" id="linearGradient-5">
            <stop stop-color="#E91E63" offset="0%"></stop>
            <stop stop-color="#F8BBD0" offset="100%"></stop>
        </linearGradient>
    </defs>
    <g id="Utilities" stroke="none" stroke-width="1" fill="none" fill-rule="evenodd">
        <g id="Coming-soon" transform="translate(-943.000000, -134.000000)">
            <g id="Bg" transform="translate(702.000000, 211.000000) scale(-1, 1) translate(-702.000000, -211.000000) translate(132.000000, 54.000000)">
                <g id="Group-10" transform="translate(164.500000, 197.000000) scale(1, -1) translate(-164.500000, -197.000000) translate(0.000000, 80.000000)">
                    <g id="Group" transform="translate(0.000000, 67.000000)" fill="url(#linearGradient-1)" fill-rule="nonzero">
                        <path d="M24.5570364,82.9506704 C27.9328186,96.6240089 34.3759183,104.280254 41.4307486,107.1754 C44.5535205,108.457168 47.8582518,108.826579 51.0607393,108.393595 C54.2961527,107.953739 57.4813107,106.654789 60.321612,104.611864 C66.5723546,100.117085 70.9428488,92.0038019 70.6291853,81.3046465 L70.6291853,80.7805993 C71.2062569,50.8703861 84.2830806,32.040766 102.035397,19.8794328 C118.361498,8.69574844 138.254005,3.74393121 155.436182,0.914075908 C156.397968,0.675247804 157.403078,0.546383719 158.439381,0.546383719 C165.220405,0.546383719 170.719048,5.99991179 170.719048,12.7231806 C170.719048,19.1148392 165.750687,24.3570302 159.43236,24.858741 C145.009036,27.2315584 128.533901,31.2332178 115.947502,39.8568023 C104.217179,47.8910485 95.5611045,60.5420652 95.1001404,80.9197725 C95.5818999,100.309522 86.9726155,115.486275 74.7120102,124.304014 C68.6449601,128.666493 61.6369194,131.467139 54.3221469,132.460252 C46.9727155,133.456801 39.3598761,132.59427 32.1248192,129.625242 C18.3426858,123.970686 6.20165382,110.860913 0.718607144,88.6791086 C0.378949385,87.5622865 0.195256924,86.3784551 0.195256924,85.1533872 C0.195256924,78.4284002 5.69390013,72.9765903 12.4766576,72.9765903 C18.500384,72.9765903 23.5120689,77.2789325 24.5570364,82.9506704 Z" id="Path"></path>
                    </g>
                    <g id="Group" transform="translate(143.000000, 140.000000)" fill="url(#linearGradient-2)">
                        <path d="M0.0218193965,46.9865072 C0.0218193965,21.3776779 20.7507912,0.425625673 46.0869585,0.425625673 L94.2154533,0.425625673 L94.2154533,25.0287013 L46.0869585,25.0287013 C34.1396011,25.0287013 24.3629415,34.910575 24.3629415,46.9865072 C24.3629415,59.0641615 34.1396011,68.944313 46.0869585,68.944313 L94.2154533,68.944313 L94.2154533,93.5491108 L46.0869585,93.5491108 C20.7507912,93.5491108 0.0218193965,72.5970586 0.0218193965,46.9865072 Z" id="Path"></path>
                        <path d="M91.3300901,46.9865072 C91.3300901,21.3776779 112.059062,0.425625673 137.395229,0.425625673 L185.523724,0.425625673 L185.523724,25.0287013 L137.395229,25.0287013 C125.447872,25.0287013 115.671212,34.910575 115.671212,46.9865072 C115.671212,59.0641615 125.447872,68.944313 137.395229,68.944313 L185.523724,68.944313 L185.523724,93.5491108 L137.395229,93.5491108 C112.059062,93.5491108 91.3300901,72.5970586 91.3300901,46.9865072 Z" id="Path" transform="translate(138.426907, 46.987368) scale(-1, 1) translate(-138.426907, -46.987368) "></path>
                    </g>
                    <g id="Group" transform="translate(154.500000, 186.500000) scale(-1, 1) translate(-154.500000, -186.500000) translate(141.000000, 173.000000)" fill="#FFE0B2">
                        <path d="M13.5628899,0.41707408 C6.22801971,0.41707408 0.280684562,6.27299678 0.280684562,13.4949637 C0.280684562,20.7169307 6.22801971,26.5728534 13.5628899,26.5728534 C20.89776,26.5728534 26.8433299,20.7169307 26.8433299,13.4949637 C26.8433299,6.27299678 20.89776,0.41707408 13.5628899,0.41707408" id="Path"></path>
                    </g>
                    <g id="Group" transform="translate(110.000000, 0.000000)" fill="#00BCD4">
                        <path d="M0.523542979,46.4160754 C0.523542979,20.8287939 21.3395429,0.0707919074 46.9983154,0.0707919074 C72.6570879,0.0707919074 93.47481,20.8287939 93.47481,46.4160754 C93.47481,46.9141163 93.4627548,47.4104398 93.4472551,47.905046 C92.5344993,53.7252552 87.485065,58.1801453 81.3919892,58.1801453 C74.933811,58.1801453 69.648438,53.1774102 69.2161706,46.845421 L69.0594521,46.845421 C69.0628965,46.7028782 69.0646187,46.5603355 69.0646187,46.4160754 C69.0646187,34.263877 59.1861893,24.4112537 46.9983154,24.4112537 C34.8104415,24.4112537 24.9320122,34.263877 24.9320122,46.4160754 C24.9320122,58.5682738 34.8104415,68.420897 46.9983154,68.420897 C47.4564155,68.420897 47.9110713,68.4054406 48.3622827,68.3779625 C54.9186252,68.5857657 60.1712767,73.952586 60.1712767,80.5421825 C60.1712767,87.2623001 54.7067969,92.7115547 47.9679032,92.7115547 C47.7595194,92.7115547 47.5545798,92.7064026 47.3496403,92.6960983 L47.3496403,92.7579241 C47.232532,92.7579241 47.1154237,92.7613588 46.9983154,92.7613588 C21.3395429,92.7613588 0.523542979,72.0033569 0.523542979,46.4160754" id="Path"></path>
                    </g>
                    <g id="Group" transform="translate(157.000000, 80.500000) rotate(-90.000000) translate(-157.000000, -80.500000) translate(145.000000, 68.000000)" fill="url(#linearGradient-3)">
                        <ellipse id="Oval" cx="11.9868976" cy="12.2754991" rx="11.9021323" ry="12.1549554"></ellipse>
                    </g>
                    <g id="Group" transform="translate(190.000000, 80.500000) rotate(-90.000000) translate(-190.000000, -80.500000) translate(178.000000, 68.000000)" fill="url(#linearGradient-4)">
                        <ellipse id="Oval" cx="11.9079643" cy="12.4830269" rx="11.9021323" ry="12.1549554"></ellipse>
                    </g>
                    <g id="Group" transform="translate(191.500000, 46.500000) rotate(-90.000000) translate(-191.500000, -46.500000) translate(179.000000, 34.000000)" fill="url(#linearGradient-5)">
                        <circle id="Oval" cx="12.4533838" cy="12.4607305" r="12.1549554"></circle>
                    </g>
                </g>
            </g>
        </g>
    </g>
</svg>