<?xml version="1.0" encoding="UTF-8"?>
<svg width="359px" height="229px" viewBox="0 0 359 229" version="1.1" xmlns="http://www.w3.org/2000/svg" xmlns:xlink="http://www.w3.org/1999/xlink">
    <!-- Generator: Sketch 64 (93537) - https://sketch.com -->
    <title>Group 4</title>
    <desc>Created with Sketch.</desc>
    <defs>
        <linearGradient x1="50.0026816%" y1="0%" x2="50.0026816%" y2="99.9944947%" id="linearGradient-1">
            <stop stop-color="#E91E63" offset="0%"></stop>
            <stop stop-color="#FF9800" offset="100%"></stop>
        </linearGradient>
        <linearGradient x1="0.00924675901%" y1="49.9976207%" x2="100.003699%" y2="49.9976207%" id="linearGradient-2">
            <stop stop-color="#00BCD4" offset="0%"></stop>
            <stop stop-color="#B2EBF2" offset="100%"></stop>
        </linearGradient>
        <linearGradient x1="23.1239026%" y1="62.8144141%" x2="82.6180729%" y2="68.5756741%" id="linearGradient-3">
            <stop stop-color="#F8BBD0" offset="0%"></stop>
            <stop stop-color="#FFE0B2" offset="100%"></stop>
        </linearGradient>
        <linearGradient x1="95.0274044%" y1="99.9926026%" x2="95.0274044%" y2="-0.0018493518%" id="linearGradient-4">
            <stop stop-color="#E91E63" offset="0%"></stop>
            <stop stop-color="#FF9800" offset="100%"></stop>
        </linearGradient>
    </defs>
    <g id="Utilities" stroke="none" stroke-width="1" fill="none" fill-rule="evenodd">
        <g id="Coming-soon" transform="translate(-132.000000, -54.000000)">
            <g id="Bg" transform="translate(786.000000, 295.500000) scale(-1, 1) translate(-786.000000, -295.500000) translate(132.000000, 54.000000)">
                <g id="Group-4" transform="translate(1128.500000, 114.500000) scale(1, -1) translate(-1128.500000, -114.500000) translate(949.000000, 0.000000)">
                    <g id="Group" transform="translate(156.000000, 9.000000)" fill="url(#linearGradient-1)">
                        <path d="M53.3201062,74.1290746 C65.6133123,73.4682586 75.3765426,63.4264835 75.3765426,51.1281719 C75.3765426,38.4037091 64.9239909,28.0897229 52.0283216,28.0897229 C40.9899391,28.0897229 31.7423138,35.6496833 29.3084364,45.8078521 C29.0238372,48.0212103 29.0293814,49.7840121 29.3028923,51.1281719 L0.44564429,46.5775526 C2.77787913,20.4865842 24.9803112,0.0219384429 52.0283216,0.0219384429 C80.6323872,0.0219384429 103.819828,22.90457 103.819828,51.1281719 C103.819828,78.704099 81.6839257,101.179353 53.9909471,102.196859 C53.3607632,102.279461 52.719491,102.322639 52.0671306,102.322639 C44.1630352,102.322639 37.7540095,95.9998316 37.7540095,88.1995745 C37.7540095,80.3993174 44.1630352,74.0765097 52.0671306,74.0765097 C52.4903332,74.0765097 52.9061437,74.0952828 53.3201062,74.1290746 Z" id="Path"></path>
                    </g>
                    <g id="Group" transform="translate(51.000000, 178.000000) scale(-1, 1) rotate(90.000000) translate(-51.000000, -178.000000) translate(37.000000, 164.000000)" fill="#E91E63">
                        <path d="M13.8234748,0.662716913 C21.3400293,0.662716913 27.4370249,6.7577916 27.4370249,14.274346 C27.4370249,21.7928214 21.3400293,27.8878961 13.8234748,27.8878961 C6.30499947,27.8878961 0.209924789,21.7928214 0.209924789,14.274346 C0.209924789,6.7577916 6.30499947,0.662716913 13.8234748,0.662716913" id="Path"></path>
                    </g>
                    <g id="Group" fill="url(#linearGradient-2)">
                        <path d="M51.2776375,0.403503818 C79.338376,0.403503818 102.296476,22.6983708 102.296476,49.9462274 L102.296476,143.398863 C102.296476,170.646719 79.338376,192.939754 51.2776375,192.939754 C23.215012,192.939754 0.256912241,170.646719 0.256912241,143.398863 L0.256912241,49.9462274 C0.256912241,22.6983708 23.215012,0.403503818 51.2776375,0.403503818 Z M51.2776375,26.5830686 C64.5097759,26.5830686 75.3377865,37.0955738 75.3377865,49.9462274 L75.3377865,143.398863 C75.3377865,156.247684 64.5097759,166.762022 51.2776375,166.762022 C38.0436121,166.762022 27.2174886,156.247684 27.2174886,143.398863 L27.2174886,49.9462274 C27.2174886,37.0955738 38.0436121,26.5830686 51.2776375,26.5830686 Z" id="Shape"></path>
                    </g>
                    <g id="Group" transform="translate(37.000000, 84.000000)" fill="url(#linearGradient-3)" fill-rule="nonzero">
                        <path d="M26.5646104,90.4349415 C30.2168403,105.341965 37.1875748,113.688998 44.8201353,116.845361 C48.1986355,118.242777 51.7739961,118.645518 55.2387398,118.173469 C58.739106,117.693926 62.1851011,116.277778 65.2579989,114.050528 C72.0206237,109.150205 76.749024,100.304897 76.4096741,88.6404041 L76.4096741,88.0690744 C77.034003,55.4601954 91.1817067,34.9316622 110.387786,21.6730658 C128.050855,9.48032724 149.572388,4.08172951 168.161639,0.996548922 C169.202187,0.736172418 170.289606,0.595681498 171.410773,0.595681498 C178.747106,0.595681498 184.696041,6.54125721 184.696041,13.8711368 C184.696041,20.8394864 179.320813,26.554657 172.485069,27.101635 C156.880598,29.6885411 139.056291,34.0512525 125.439173,43.4529048 C112.748237,52.2120453 103.383304,66.0045072 102.884591,88.2208046 C103.405803,109.360005 94.0914915,125.906089 80.8268475,135.519414 C74.2629579,140.2755 66.6810186,143.328836 58.7672289,144.411553 C50.8159419,145.498016 42.579676,144.557663 34.7521299,141.320752 C19.8413576,135.156011 6.70607903,120.863401 0.77401773,96.6802311 C0.406544906,95.4626432 0.207809603,94.1719999 0.207809603,92.8363996 C0.207809603,85.5046468 6.15674465,79.5609443 13.494952,79.5609443 C20.01197,79.5609443 25.434069,84.2514678 26.5646104,90.4349415 Z" id="Path"></path>
                    </g>
                    <g id="Group" transform="translate(51.000000, 178.000000) scale(-1, 1) rotate(90.000000) translate(-51.000000, -178.000000) translate(37.000000, 164.000000)" fill="#E91E63">
                        <path d="M13.8234748,0.662716913 C21.3400293,0.662716913 27.4370249,6.7577916 27.4370249,14.274346 C27.4370249,21.7928214 21.3400293,27.8878961 13.8234748,27.8878961 C6.30499947,27.8878961 0.209924789,21.7928214 0.209924789,14.274346 C0.209924789,6.7577916 6.30499947,0.662716913 13.8234748,0.662716913" id="Path"></path>
                    </g>
                    <g id="Group" transform="translate(208.000000, 98.000000) scale(-1, 1) rotate(90.000000) translate(-208.000000, -98.000000) translate(194.000000, 84.000000)" fill="#00BCD4">
                        <path d="M13.8234748,0.662716913 C21.3400293,0.662716913 27.4370249,6.7577916 27.4370249,14.274346 C27.4370249,21.7928214 21.3400293,27.8878961 13.8234748,27.8878961 C6.30499947,27.8878961 0.209924789,21.7928214 0.209924789,14.274346 C0.209924789,6.7577916 6.30499947,0.662716913 13.8234748,0.662716913" id="Path"></path>
                    </g>
                    <g id="Group" transform="translate(155.000000, 128.000000)" fill="url(#linearGradient-4)">
                        <path d="M0.0271176289,50.4855024 C0.0271176289,22.9696326 22.7617638,0.457321201 50.5493842,0.457321201 L103.334651,0.457321201 L103.334651,26.8925408 L50.5493842,26.8925408 C37.4460356,26.8925408 26.7234151,37.5102987 26.7234151,50.4855024 C26.7234151,63.4625565 37.4460356,74.078464 50.5493842,74.078464 L103.334651,74.078464 L103.334651,100.515534 L50.5493842,100.515534 C22.7617638,100.515534 0.0271176289,78.0032225 0.0271176289,50.4855024 Z" id="Path"></path>
                        <path d="M100.170108,50.4855024 C100.170108,22.9696326 122.904754,0.457321201 150.692375,0.457321201 L203.477641,0.457321201 L203.477641,26.8925408 L150.692375,26.8925408 C137.589026,26.8925408 126.866406,37.5102987 126.866406,50.4855024 C126.866406,63.4625565 137.589026,74.078464 150.692375,74.078464 L203.477641,74.078464 L203.477641,100.515534 L150.692375,100.515534 C122.904754,100.515534 100.170108,78.0032225 100.170108,50.4855024 Z" id="Path" transform="translate(151.823874, 50.486428) scale(-1, 1) translate(-151.823874, -50.486428) "></path>
                    </g>
                    <g id="Group" transform="translate(166.500000, 177.500000) scale(-1, 1) translate(-166.500000, -177.500000) translate(152.000000, 163.000000)" fill="#FFE0B2">
                        <path d="M14.5569074,0.453295648 C6.6844682,0.453295648 0.301255795,6.81778678 0.301255795,14.6669588 C0.301255795,22.5161308 6.6844682,28.8806219 14.5569074,28.8806219 C22.4293465,28.8806219 28.8106642,22.5161308 28.8106642,14.6669588 C28.8106642,6.81778678 22.4293465,0.453295648 14.5569074,0.453295648" id="Path"></path>
                    </g>
                </g>
            </g>
        </g>
    </g>
</svg>