<?xml version="1.0" encoding="UTF-8"?>
<svg width="590px" height="273px" viewBox="0 0 590 273" version="1.1" xmlns="http://www.w3.org/2000/svg" xmlns:xlink="http://www.w3.org/1999/xlink">
    <!-- Generator: Sketch 64 (93537) - https://sketch.com -->
    <title>Deco</title>
    <desc>Created with Sketch.</desc>
    <defs>
        <linearGradient x1="0.00924675901%" y1="49.9976207%" x2="100.003699%" y2="49.9976207%" id="linearGradient-1">
            <stop stop-color="#00BCD4" offset="0%"></stop>
            <stop stop-color="#B2EBF2" offset="100%"></stop>
        </linearGradient>
        <linearGradient x1="0.00203249967%" y1="50.0003387%" x2="100.001016%" y2="50.0003387%" id="linearGradient-2">
            <stop stop-color="#FF9800" offset="0%"></stop>
            <stop stop-color="#E91E63" offset="100%"></stop>
        </linearGradient>
        <linearGradient x1="95.0274044%" y1="99.9926026%" x2="95.0274044%" y2="-0.0018493518%" id="linearGradient-3">
            <stop stop-color="#E91E63" offset="0%"></stop>
            <stop stop-color="#FF9800" offset="100%"></stop>
        </linearGradient>
        <linearGradient x1="99.9788345%" y1="49.9858897%" x2="0.00705517144%" y2="49.9858897%" id="linearGradient-4">
            <stop stop-color="#00BCD4" offset="0%"></stop>
            <stop stop-color="#B2EBF2" offset="100%"></stop>
        </linearGradient>
        <linearGradient x1="99.9717793%" y1="50.0352759%" x2="8.02080131e-13%" y2="50.0352759%" id="linearGradient-5">
            <stop stop-color="#00BCD4" offset="0%"></stop>
            <stop stop-color="#B2EBF2" offset="100%"></stop>
        </linearGradient>
        <linearGradient x1="99.9929448%" y1="49.9929448%" x2="0.0211655143%" y2="49.9929448%" id="linearGradient-6">
            <stop stop-color="#E91E63" offset="0%"></stop>
            <stop stop-color="#F8BBD0" offset="100%"></stop>
        </linearGradient>
    </defs>
    <g id="Page-1" stroke="none" stroke-width="1" fill="none" fill-rule="evenodd">
        <g id="Deco">
            <g id="Group-9" transform="translate(49.500000, 39.000000) scale(-1, 1) rotate(90.000000) translate(-49.500000, -39.000000) translate(10.500000, -10.500000)">
                <g id="Group" transform="translate(27.000000, 1.000000)" fill="url(#linearGradient-1)">
                    <path d="M25.3898982,0.204048244 C39.2840502,0.204048244 50.651653,11.4783615 50.651653,25.2573571 L50.651653,72.5155126 C50.651653,86.2945081 39.2840502,97.5678948 25.3898982,97.5678948 C11.4948118,97.5678948 0.127208973,86.2945081 0.127208973,72.5155126 L0.127208973,25.2573571 C0.127208973,11.4783615 11.4948118,0.204048244 25.3898982,0.204048244 Z M25.3898982,13.4428182 C31.9417337,13.4428182 37.3031758,18.7588974 37.3031758,25.2573571 L37.3031758,72.5155126 C37.3031758,79.0130456 31.9417337,84.3300515 25.3898982,84.3300515 C18.8371283,84.3300515 13.4766206,79.0130456 13.4766206,72.5155126 L13.4766206,25.2573571 C13.4766206,18.7588974 18.8371283,13.4428182 25.3898982,13.4428182 Z" id="Shape"></path>
                </g>
                <g id="Group" transform="translate(0.000000, 43.000000)" fill="#F8BBD0">
                    <path d="M0.36321527,29.6024791 C0.36321527,13.0804982 14.1132415,0.0528043019 30.5855197,0.0528043019 C49.2147377,0.0528043019 64.6495241,17.3234288 59.9137557,35.6101356 C58.8557749,37.82923 56.5814885,39.3644583 53.9458495,39.3644583 C50.3006583,39.3644583 47.3455761,36.4281837 47.3455761,32.8071178 C47.3455761,31.7262579 47.5029694,30.6953692 47.5029694,29.6024791 C47.5029694,20.5845165 39.928534,13.2739055 30.5855197,13.2739055 C21.2425054,13.2739055 13.6690013,20.5845165 13.6690013,29.6024791 C13.6690013,35.6230911 17.0441094,40.8811787 22.0676559,43.7128837 C25.2881647,45.9819493 24.9575456,48.5221553 24.9575456,49.1986182 C24.9575456,52.8206095 22.0024635,55.756884 18.3572723,55.756884 C17.7370123,55.756884 17.4734484,55.8799614 16.3838026,55.6819271 C6.91226598,50.7412496 0.36321527,41.0042561 0.36321527,29.6024791" id="Path"></path>
                </g>
                <g id="Group" transform="translate(53.000000, 7.000000) scale(-1, 1) rotate(90.000000) translate(-53.000000, -7.000000) translate(46.000000, 0.000000)" fill="#FFE0B2">
                    <path d="M6.83435392,0.16278598 C10.4852518,0.16278598 13.4457166,3.12325083 13.4457166,6.77508171 C13.4457166,10.4259796 10.4852518,13.3864444 6.83435392,13.3864444 C3.18252304,13.3864444 0.222058189,10.4259796 0.222058189,6.77508171 C0.222058189,3.12325083 3.18252304,0.16278598 6.83435392,0.16278598" id="Path"></path>
                </g>
            </g>
            <g id="Group-10" transform="translate(535.500000, 192.500000) rotate(90.000000) translate(-535.500000, -192.500000) translate(455.000000, 138.000000)">
                <g id="Group" transform="translate(0.000000, 37.000000)" fill="url(#linearGradient-2)" fill-rule="nonzero">
                    <path d="M13.6974027,44.9056261 C15.5254748,52.3077342 19.0145776,56.4524682 22.834948,58.0197655 C24.5260085,58.713655 26.3156048,58.9136366 28.0498334,58.6792396 C29.8018922,58.441122 31.5267364,57.737931 33.064832,56.6319865 C36.4497684,54.1987226 38.8165024,49.8065695 38.6466456,44.0145455 L38.6466456,43.7308507 C38.9591446,27.5388556 46.0405779,17.3453771 55.6539099,10.7617982 C64.4949096,4.70747284 75.2672092,2.02678983 84.571796,0.494838085 C85.0926276,0.365547683 85.6369201,0.295786675 86.1981045,0.295786675 C89.8702021,0.295786675 92.8478576,3.24807255 92.8478576,6.88773688 C92.8478576,10.3478829 90.1573633,13.1857607 86.735828,13.4573636 C78.9252303,14.7418963 70.0035252,16.9082081 63.1876691,21.5766148 C56.8354,25.9259811 52.1479153,32.7746518 51.8982915,43.8061926 C52.1591766,54.302899 47.4970296,62.5188855 40.8575994,67.2923987 C37.5721371,69.6540414 33.7771044,71.1701806 29.8159687,71.7078055 C25.8360643,72.2472906 21.7135177,71.7803569 17.79555,70.1730633 C10.3321735,67.1119503 3.75749524,60.0149303 0.788285715,48.0067355 C0.604352381,47.4021401 0.504878232,46.7612689 0.504878232,46.0980743 C0.504878232,42.4574798 3.48253368,39.5061241 7.15556973,39.5061241 C10.4175711,39.5061241 13.1315262,41.8352116 13.6974027,44.9056261 Z" id="Path"></path>
                </g>
                <g id="Group" transform="translate(59.000000, 58.000000)" fill="url(#linearGradient-3)">
                    <path d="M0.415080236,25.4926794 C0.415080236,11.5985274 11.7376501,0.230924567 25.5767602,0.230924567 L51.8654854,0.230924567 L51.8654854,13.5794018 L25.5767602,13.5794018 C19.0508799,13.5794018 13.7106772,18.9408439 13.7106772,25.4926794 C13.7106772,32.0454493 19.0508799,37.4059571 25.5767602,37.4059571 L51.8654854,37.4059571 L51.8654854,50.7553686 L25.5767602,50.7553686 C11.7376501,50.7553686 0.415080236,39.3877658 0.415080236,25.4926794 Z" id="Path"></path>
                    <path d="M50.2894436,25.4926794 C50.2894436,11.5985274 61.6120134,0.230924567 75.4511235,0.230924567 L101.739849,0.230924567 L101.739849,13.5794018 L75.4511235,13.5794018 C68.9252432,13.5794018 63.5850406,18.9408439 63.5850406,25.4926794 C63.5850406,32.0454493 68.9252432,37.4059571 75.4511235,37.4059571 L101.739849,37.4059571 L101.739849,50.7553686 L75.4511235,50.7553686 C61.6120134,50.7553686 50.2894436,39.3877658 50.2894436,25.4926794 Z" id="Path" transform="translate(76.014646, 25.493147) scale(-1, 1) translate(-76.014646, -25.493147) "></path>
                </g>
                <g id="Group" transform="translate(65.500000, 83.500000) scale(-1, 1) translate(-65.500000, -83.500000) translate(58.000000, 76.000000)" fill="#FF9800">
                    <path d="M7.33129182,0.225445448 C3.36649714,0.225445448 0.151721385,3.39080907 0.151721385,7.294575 C0.151721385,11.1983409 3.36649714,14.3637045 7.33129182,14.3637045 C11.2960865,14.3637045 14.509908,11.1983409 14.509908,7.294575 C14.509908,3.39080907 11.2960865,0.225445448 7.33129182,0.225445448" id="Path"></path>
                </g>
                <g id="Group" transform="translate(60.000000, 0.000000)" fill="#00BCD4">
                    <path d="M0.284049914,25.6551266 C0.284049914,11.7338777 11.5778371,0.440090492 25.499086,0.440090492 C39.4203349,0.440090492 50.7150565,11.7338777 50.7150565,25.6551266 C50.7150565,25.9260953 50.7085159,26.1961296 50.7001065,26.4652295 C50.2048879,29.6318254 47.4653012,32.0555934 44.1594835,32.0555934 C40.6555783,32.0555934 37.7879823,29.3337599 37.5534542,25.8887203 L37.4684261,25.8887203 C37.4702949,25.8111672 37.4712293,25.7336141 37.4712293,25.6551266 C37.4712293,19.0434911 32.1116559,13.6829834 25.499086,13.6829834 C18.8865162,13.6829834 13.5269428,19.0434911 13.5269428,25.6551266 C13.5269428,32.2667621 18.8865162,37.6272699 25.499086,37.6272699 C25.7476297,37.6272699 25.9943046,37.6188605 26.2391108,37.6039105 C29.7962753,37.7169698 32.6461182,40.6368908 32.6461182,44.2220866 C32.6461182,47.8782949 29.6813473,50.8430658 26.025139,50.8430658 C25.9120797,50.8430658 25.8008891,50.8402627 25.6896985,50.8346565 L25.6896985,50.868294 C25.626161,50.868294 25.5626235,50.8701627 25.499086,50.8701627 C11.5778371,50.8701627 0.284049914,39.5763755 0.284049914,25.6551266" id="Path"></path>
                </g>
                <g id="Group" transform="translate(86.500000, 44.000000) rotate(-90.000000) translate(-86.500000, -44.000000) translate(80.000000, 37.000000)" fill="url(#linearGradient-4)">
                    <ellipse id="Oval" cx="6.49290284" cy="7.07787152" rx="6.44698834" ry="6.61229573"></ellipse>
                </g>
                <g id="Group" transform="translate(103.500000, 44.000000) rotate(-90.000000) translate(-103.500000, -44.000000) translate(97.000000, 37.000000)" fill="url(#linearGradient-5)">
                    <ellipse id="Oval" cx="6.45014731" cy="7.19076665" rx="6.44698834" ry="6.61229573"></ellipse>
                </g>
                <g id="Group" transform="translate(104.000000, 25.000000) rotate(-90.000000) translate(-104.000000, -25.000000) translate(97.000000, 18.000000)" fill="url(#linearGradient-6)">
                    <circle id="Oval" cx="6.7746408" cy="7.17863742" r="6.61229573"></circle>
                </g>
            </g>
        </g>
    </g>
</svg>