<?xml version="1.0" encoding="UTF-8"?>
<svg width="824px" height="216px" viewBox="0 0 824 216" version="1.1" xmlns="http://www.w3.org/2000/svg" xmlns:xlink="http://www.w3.org/1999/xlink">
    <!-- Generator: Sketch 64 (93537) - https://sketch.com -->
    <title>Bg</title>
    <desc>Created with Sketch.</desc>
    <defs>
        <linearGradient x1="-22.7655591%" y1="-64.8400272%" x2="93.8301116%" y2="50%" id="linearGradient-1">
            <stop stop-color="#E91E63" offset="0%"></stop>
            <stop stop-color="#F8BBD0" offset="100%"></stop>
        </linearGradient>
        <linearGradient x1="100.01411%" y1="49.9647241%" x2="-0.0282206858%" y2="49.9647241%" id="linearGradient-2">
            <stop stop-color="#E91E63" offset="0%"></stop>
            <stop stop-color="#F8BBD0" offset="100%"></stop>
        </linearGradient>
        <linearGradient x1="100.01411%" y1="50.0282207%" x2="-0.0282206858%" y2="50.0282207%" id="linearGradient-3">
            <stop stop-color="#00BCD4" offset="0%"></stop>
            <stop stop-color="#B2EBF2" offset="100%"></stop>
        </linearGradient>
        <linearGradient x1="100.035276%" y1="49.9929448%" x2="-0.00705517144%" y2="49.9929448%" id="linearGradient-4">
            <stop stop-color="#E91E63" offset="0%"></stop>
            <stop stop-color="#F8BBD0" offset="100%"></stop>
        </linearGradient>
        <linearGradient x1="-16.9307748%" y1="72.7326247%" x2="100%" y2="50%" id="linearGradient-5">
            <stop stop-color="#FFE0B2" offset="0%"></stop>
            <stop stop-color="#FF9800" offset="100%"></stop>
        </linearGradient>
        <linearGradient x1="95.0274044%" y1="99.9926026%" x2="95.0274044%" y2="-0.0018493518%" id="linearGradient-6">
            <stop stop-color="#E91E63" offset="0%"></stop>
            <stop stop-color="#FF9800" offset="100%"></stop>
        </linearGradient>
        <linearGradient x1="99.9788345%" y1="49.9858897%" x2="0.00705517144%" y2="49.9858897%" id="linearGradient-7">
            <stop stop-color="#00BCD4" offset="0%"></stop>
            <stop stop-color="#B2EBF2" offset="100%"></stop>
        </linearGradient>
        <linearGradient x1="99.9717793%" y1="50.0352759%" x2="8.02080131e-13%" y2="50.0352759%" id="linearGradient-8">
            <stop stop-color="#00BCD4" offset="0%"></stop>
            <stop stop-color="#B2EBF2" offset="100%"></stop>
        </linearGradient>
        <linearGradient x1="99.9929448%" y1="49.9929448%" x2="0.0211655143%" y2="49.9929448%" id="linearGradient-9">
            <stop stop-color="#E91E63" offset="0%"></stop>
            <stop stop-color="#F8BBD0" offset="100%"></stop>
        </linearGradient>
        <linearGradient x1="50.0026816%" y1="0%" x2="50.0026816%" y2="99.9944947%" id="linearGradient-10">
            <stop stop-color="#E91E63" offset="0%"></stop>
            <stop stop-color="#FF9800" offset="100%"></stop>
        </linearGradient>
        <linearGradient x1="0.00924675901%" y1="49.9976207%" x2="100.003699%" y2="49.9976207%" id="linearGradient-11">
            <stop stop-color="#00BCD4" offset="0%"></stop>
            <stop stop-color="#B2EBF2" offset="100%"></stop>
        </linearGradient>
        <linearGradient x1="23.1239026%" y1="62.6112262%" x2="82.6180729%" y2="68.2811344%" id="linearGradient-12">
            <stop stop-color="#F8BBD0" offset="0%"></stop>
            <stop stop-color="#FFE0B2" offset="100%"></stop>
        </linearGradient>
        <linearGradient x1="95.0274044%" y1="99.9926026%" x2="95.0274044%" y2="-0.0018493518%" id="linearGradient-13">
            <stop stop-color="#E91E63" offset="0%"></stop>
            <stop stop-color="#FF9800" offset="100%"></stop>
        </linearGradient>
    </defs>
    <g id="Page-1" stroke="none" stroke-width="1" fill="none" fill-rule="evenodd">
        <g id="Bg" transform="translate(413.500000, 93.000000) scale(-1, 1) translate(-413.500000, -93.000000) translate(0.000000, -30.000000)">
            <g id="Group-2" transform="translate(71.000000, 71.321437) rotate(224.000000) translate(-71.000000, -71.321437) translate(19.000000, 23.321437)">
                <g id="Group" transform="translate(45.722344, 40.010594) rotate(55.322418) translate(-45.722344, -40.010594) translate(26.722344, -1.489406)" fill="#FF9800">
                    <path d="M14.1058191,2.60634215 C40.3591334,24.3503808 44.9613202,54.5341813 27.2848547,79.3500672 C19.6467503,87.4175757 9.64703752,79.5972274 14.1058191,72.6454704 C25.5741634,53.379086 29.4949214,36.1000708 5.58287435,15.3678754 C-6.82218024,5.88701458 6.22972314,-4.61275131 14.1058191,2.60634215 Z" id="Path"></path>
                </g>
                <g id="Group" transform="translate(28.000000, 15.000000)" fill="url(#linearGradient-1)">
                    <path d="M5.61110913,66.4930587 C6.53105709,66.4707361 7.44585992,66.4281201 8.3544886,66.3641962 L8.36889495,66.3662255 L8.36889495,66.3641962 C37.7557783,64.3023959 60.9499919,40.1442253 60.9499919,10.640797 C60.9499919,9.83312323 60.9283824,9.03052283 60.8944246,8.23096643 L60.9211792,8.2289371 C60.9067729,8.10920657 60.8954536,7.98846138 60.8872214,7.86670152 C60.6165879,3.90443279 63.6552975,0.475878113 67.6736384,0.210035756 C71.6168605,-0.0517479398 75.0393962,2.82990204 75.4201352,6.6825869 C75.494225,7.99252004 75.534357,9.31259984 75.534357,10.640797 C75.534357,48.5436262 45.0916944,79.429029 7.00132131,80.8343407 L7.0177857,80.6669209 C6.89533178,80.6618476 6.77184883,80.6537302 6.64939491,80.6425689 C2.6392862,80.2742453 -0.308869161,76.7706054 0.0646667537,72.816454 C0.361025827,69.6750497 2.66501182,67.1952072 5.61110913,66.4930587" id="Path"></path>
                </g>
                <g id="Group" transform="translate(30.000000, 88.000000) scale(-1, 1) rotate(90.000000) translate(-30.000000, -88.000000) translate(22.000000, 80.000000)" fill="#FFE0B2">
                    <path d="M7.8106902,0.18604112 C11.9831449,0.18604112 15.3665333,3.56942952 15.3665333,7.74295053 C15.3665333,11.9154052 11.9831449,15.2987936 7.8106902,15.2987936 C3.63716918,15.2987936 0.253780787,11.9154052 0.253780787,7.74295053 C0.253780787,3.56942952 3.63716918,0.18604112 7.8106902,0.18604112" id="Path"></path>
                </g>
            </g>
            <g id="Group-8" transform="translate(0.000000, 142.321437)">
                <g id="Group" transform="translate(12.000000, 50.000000) rotate(66.000000) translate(-12.000000, -50.000000) translate(4.000000, 42.000000)" fill="url(#linearGradient-2)">
                    <circle id="Oval" cx="8.05594054" cy="8.28412999" r="7.55690941"></circle>
                </g>
                <g id="Group" transform="translate(12.000000, 29.000000) rotate(-114.000000) translate(-12.000000, -29.000000) translate(4.000000, 21.000000)" fill="url(#linearGradient-3)">
                    <circle id="Oval" cx="8.05594054" cy="7.9567741" r="7.55690941"></circle>
                </g>
                <g id="Group" transform="translate(11.000000, 10.000000) rotate(66.000000) translate(-11.000000, -10.000000) translate(4.000000, 2.000000)" fill="url(#linearGradient-4)">
                    <ellipse id="Oval" cx="6.98307693" cy="7.81226041" rx="6.94291052" ry="7.55690941"></ellipse>
                </g>
            </g>
            <g id="Group-10" transform="translate(142.000000, 164.321437) scale(1, -1) translate(-142.000000, -164.321437) translate(45.000000, 95.321437)">
                <g id="Group" transform="translate(0.000000, 40.000000)" fill="url(#linearGradient-5)" fill-rule="nonzero">
                    <path d="M14.8756739,48.6477616 C16.8609996,56.666712 20.6502402,61.1568405 24.7992446,62.854746 C26.6357727,63.6064596 28.5793127,63.8231063 30.4627222,63.5691762 C32.3654958,63.3112155 34.2387137,62.5494253 35.9091186,61.3513187 C39.5852323,58.7152828 42.1555564,53.9571169 41.9710882,47.6824243 L41.9710882,47.3750883 C42.3104689,29.8337603 50.0010577,18.7908252 60.441343,11.6586147 C70.0428588,5.09976224 81.7418079,2.19568898 91.8467892,0.536074593 C92.4124235,0.39600999 93.0035369,0.320435565 93.6129952,0.320435565 C97.6009722,0.320435565 100.83477,3.51874526 100.83477,7.46171496 C100.83477,11.2102065 97.9128355,14.2845741 94.1969745,14.5788105 C85.7144975,15.9703876 76.0253338,18.3172255 68.6231675,23.374666 C61.7244667,28.0864795 56.6337575,35.5058728 56.3626607,47.4567087 C56.6459875,58.8281406 51.5827956,67.7287926 44.3722316,72.9000986 C40.8041489,75.4585448 36.6826618,77.101029 32.3807832,77.6834559 C28.0585215,78.2678982 23.5813472,77.7620533 19.32635,76.0208186 C11.2209626,72.7046128 4.08072064,65.0161745 0.856095239,52.0072967 C0.656339683,51.3523184 0.548308617,50.6580413 0.548308617,49.9395805 C0.548308617,45.9956031 3.78210647,42.7983011 7.77110261,42.7983011 C11.3137062,42.7983011 14.2611199,45.3214792 14.8756739,48.6477616 Z" id="Path"></path>
                </g>
                <g id="Group" transform="translate(84.000000, 83.000000)" fill="url(#linearGradient-6)">
                    <path d="M0.447635549,27.4921053 C0.447635549,12.5082158 12.6582501,0.249036298 27.5827806,0.249036298 L55.9333666,0.249036298 L55.9333666,14.6444529 L27.5827806,14.6444529 C20.5450666,14.6444529 14.7860245,20.4264003 14.7860245,27.4921053 C14.7860245,34.5588179 20.5450666,40.3397576 27.5827806,40.3397576 L55.9333666,40.3397576 L55.9333666,54.7361819 L27.5827806,54.7361819 C12.6582501,54.7361819 0.447635549,42.4770024 0.447635549,27.4921053 Z" id="Path"></path>
                    <path d="M54.2337136,27.4921053 C54.2337136,12.5082158 66.4443282,0.249036298 81.3688587,0.249036298 L109.719445,0.249036298 L109.719445,14.6444529 L81.3688587,14.6444529 C74.3311447,14.6444529 68.5721026,20.4264003 68.5721026,27.4921053 C68.5721026,34.5588179 74.3311447,40.3397576 81.3688587,40.3397576 L109.719445,40.3397576 L109.719445,54.7361819 L81.3688587,54.7361819 C66.4443282,54.7361819 54.2337136,42.4770024 54.2337136,27.4921053 Z" id="Path" transform="translate(81.976579, 27.492609) scale(-1, 1) translate(-81.976579, -27.492609) "></path>
                </g>
                <g id="Group" transform="translate(91.000000, 110.000000) scale(-1, 1) translate(-91.000000, -110.000000) translate(83.000000, 102.000000)" fill="#FFE0B2">
                    <path d="M7.82004461,0.240475145 C3.59093028,0.240475145 0.161836144,3.61686301 0.161836144,7.78088 C0.161836144,11.944897 3.59093028,15.3212848 7.82004461,15.3212848 C12.0491589,15.3212848 15.4772352,11.944897 15.4772352,7.78088 C15.4772352,3.61686301 12.0491589,0.240475145 7.82004461,0.240475145" id="Path"></path>
                </g>
                <g id="Group" transform="translate(65.000000, 0.000000)" fill="#00BCD4">
                    <path d="M0.306328339,27.6672934 C0.306328339,12.6541818 12.4859028,0.474607393 27.4990143,0.474607393 C42.5121259,0.474607393 54.692708,12.6541818 54.692708,27.6672934 C54.692708,27.9595145 54.6856544,28.250728 54.6765855,28.5409338 C54.1425262,31.9558901 51.18807,34.5697576 47.6229724,34.5697576 C43.8442511,34.5697576 40.7517456,31.6344469 40.4988232,27.9192081 L40.4071262,27.9192081 C40.4091416,27.8355724 40.4101492,27.7519368 40.4101492,27.6672934 C40.4101492,20.5370983 34.6302171,14.7561585 27.4990143,14.7561585 C20.3678115,14.7561585 14.5878795,20.5370983 14.5878795,27.6672934 C14.5878795,34.7974885 20.3678115,40.5784283 27.4990143,40.5784283 C27.7670516,40.5784283 28.0330736,40.5693593 28.2970803,40.5532368 C32.1332381,40.6751635 35.2065981,43.8240979 35.2065981,47.6904856 C35.2065981,51.6334553 32.0092961,54.8307573 28.0663264,54.8307573 C27.9443996,54.8307573 27.8244882,54.8277343 27.7045768,54.8216884 L27.7045768,54.8579641 C27.636056,54.8579641 27.5675352,54.8599794 27.4990143,54.8599794 C12.4859028,54.8599794 0.306328339,42.680405 0.306328339,27.6672934" id="Path"></path>
                </g>
                <g id="Group" transform="translate(93.000000, 47.500000) rotate(-90.000000) translate(-93.000000, -47.500000) translate(86.000000, 40.000000)" fill="url(#linearGradient-7)">
                    <ellipse id="Oval" cx="6.99235691" cy="7.58343377" rx="6.94291052" ry="7.08460257"></ellipse>
                </g>
                <g id="Group" transform="translate(112.000000, 47.500000) rotate(-90.000000) translate(-112.000000, -47.500000) translate(105.000000, 40.000000)" fill="url(#linearGradient-8)">
                    <ellipse id="Oval" cx="6.94631249" cy="7.70439284" rx="6.94291052" ry="7.08460257"></ellipse>
                </g>
                <g id="Group" transform="translate(112.500000, 27.500000) rotate(-90.000000) translate(-112.500000, -27.500000) translate(105.000000, 20.000000)" fill="url(#linearGradient-9)">
                    <circle id="Oval" cx="7.25854371" cy="7.69139723" r="7.08460257"></circle>
                </g>
            </g>
            <g id="Group-4" transform="translate(677.000000, 187.321437) scale(-1, -1) translate(-677.000000, -187.321437) translate(527.000000, 129.321437)">
                <g id="Group" transform="translate(0.000000, 3.000000)" fill="url(#linearGradient-10)">
                    <path d="M26.9653209,37.5365073 C33.1823049,37.2054577 38.1198164,32.1748208 38.1198164,26.013725 C38.1198164,19.6391397 32.8336977,14.472133 26.3120329,14.472133 C20.7296448,14.472133 16.0528877,18.259453 14.8220146,23.3483997 C14.6780856,24.4572277 14.6808894,25.34034 14.8192108,26.013725 L0.225373544,23.7339972 C1.40484345,10.663182 12.6331727,0.410990521 26.3120329,0.410990521 C40.7778294,0.410990521 52.5043024,11.8745225 52.5043024,26.013725 C52.5043024,39.8284613 41.3096189,51.0879087 27.304582,51.5976498 C26.9858822,51.639031 26.6615747,51.660662 26.3316595,51.660662 C22.3343594,51.660662 19.0931537,48.4931195 19.0931537,44.5854179 C19.0931537,40.6777163 22.3343594,37.5101738 26.3316595,37.5101738 C26.5456838,37.5101738 26.7559696,37.5195786 26.9653209,37.5365073 Z" id="Path"></path>
                </g>
                <g id="Group" transform="translate(121.000000, 0.000000)" fill="url(#linearGradient-11)">
                    <path d="M25.3898982,0.204048244 C39.2840502,0.204048244 50.651653,11.4783615 50.651653,25.2573571 L50.651653,72.5155126 C50.651653,86.2945081 39.2840502,97.5678948 25.3898982,97.5678948 C11.4948118,97.5678948 0.127208973,86.2945081 0.127208973,72.5155126 L0.127208973,25.2573571 C0.127208973,11.4783615 11.4948118,0.204048244 25.3898982,0.204048244 Z M25.3898982,13.4428182 C31.9417337,13.4428182 37.3031758,18.7588974 37.3031758,25.2573571 L37.3031758,72.5155126 C37.3031758,79.0130456 31.9417337,84.3300515 25.3898982,84.3300515 C18.8371283,84.3300515 13.4766206,79.0130456 13.4766206,72.5155126 L13.4766206,25.2573571 C13.4766206,18.7588974 18.8371283,13.4428182 25.3898982,13.4428182 Z" id="Shape"></path>
                </g>
                <g id="Group" transform="translate(139.000000, 44.000000)" fill="url(#linearGradient-12)" fill-rule="nonzero">
                    <path d="M13.6974027,44.9056261 C15.5254748,52.3077342 19.0145776,56.4524682 22.834948,58.0197655 C24.5260085,58.713655 26.3156048,58.9136366 28.0498334,58.6792396 C29.8018922,58.441122 31.5267364,57.737931 33.064832,56.6319865 C36.4497684,54.1987226 38.8165024,49.8065695 38.6466456,44.0145455 L38.6466456,43.7308507 C38.9591446,27.5388556 46.0405779,17.3453771 55.6539099,10.7617982 C64.4949096,4.70747284 75.2672092,2.02678983 84.571796,0.494838085 C85.0926276,0.365547683 85.6369201,0.295786675 86.1981045,0.295786675 C89.8702021,0.295786675 92.8478576,3.24807255 92.8478576,6.88773688 C92.8478576,10.3478829 90.1573633,13.1857607 86.735828,13.4573636 C78.9252303,14.7418963 70.0035252,16.9082081 63.1876691,21.5766148 C56.8354,25.9259811 52.1479153,32.7746518 51.8982915,43.8061926 C52.1591766,54.302899 47.4970296,62.5188855 40.8575994,67.2923987 C37.5721371,69.6540414 33.7771044,71.1701806 29.8159687,71.7078055 C25.8360643,72.2472906 21.7135177,71.7803569 17.79555,70.1730633 C10.3321735,67.1119503 3.75749524,60.0149303 0.788285715,48.0067355 C0.604352381,47.4021401 0.504878232,46.7612689 0.504878232,46.0980743 C0.504878232,42.4574798 3.48253368,39.5061241 7.15556973,39.5061241 C10.4175711,39.5061241 13.1315262,41.8352116 13.6974027,44.9056261 Z" id="Path"></path>
                </g>
                <g id="Group" transform="translate(147.000000, 90.000000) scale(-1, 1) rotate(90.000000) translate(-147.000000, -90.000000) translate(140.000000, 83.000000)" fill="#E91E63">
                    <path d="M7.1142592,0.321891072 C10.7651571,0.321891072 13.7265549,3.28235592 13.7265549,6.93325379 C13.7265549,10.5850847 10.7651571,13.5455495 7.1142592,13.5455495 C3.46242832,13.5455495 0.501963469,10.5850847 0.501963469,6.93325379 C0.501963469,3.28235592 3.46242832,0.321891072 7.1142592,0.321891072" id="Path"></path>
                </g>
                <g id="Group" transform="translate(94.000000, 42.000000)" fill="#F8BBD0">
                    <path d="M0.36321527,29.6024791 C0.36321527,13.0804982 14.1132415,0.0528043019 30.5855197,0.0528043019 C49.2147377,0.0528043019 64.6495241,17.3234288 59.9137557,35.6101356 C58.8557749,37.82923 56.5814885,39.3644583 53.9458495,39.3644583 C50.3006583,39.3644583 47.3455761,36.4281837 47.3455761,32.8071178 C47.3455761,31.7262579 47.5029694,30.6953692 47.5029694,29.6024791 C47.5029694,20.5845165 39.928534,13.2739055 30.5855197,13.2739055 C21.2425054,13.2739055 13.6690013,20.5845165 13.6690013,29.6024791 C13.6690013,35.6230911 17.0441094,40.8811787 22.0676559,43.7128837 C25.2881647,45.9819493 24.9575456,48.5221553 24.9575456,49.1986182 C24.9575456,52.8206095 22.0024635,55.756884 18.3572723,55.756884 C17.7370123,55.756884 17.4734484,55.8799614 16.3838026,55.6819271 C6.91226598,50.7412496 0.36321527,41.0042561 0.36321527,29.6024791" id="Path"></path>
                </g>
                <g id="Group" transform="translate(198.000000, 65.000000)" fill="url(#linearGradient-13)">
                    <path d="M0.415080236,25.4926794 C0.415080236,11.5985274 11.7376501,0.230924567 25.5767602,0.230924567 L51.8654854,0.230924567 L51.8654854,13.5794018 L25.5767602,13.5794018 C19.0508799,13.5794018 13.7106772,18.9408439 13.7106772,25.4926794 C13.7106772,32.0454493 19.0508799,37.4059571 25.5767602,37.4059571 L51.8654854,37.4059571 L51.8654854,50.7553686 L25.5767602,50.7553686 C11.7376501,50.7553686 0.415080236,39.3877658 0.415080236,25.4926794 Z" id="Path"></path>
                    <path d="M50.2894436,25.4926794 C50.2894436,11.5985274 61.6120134,0.230924567 75.4511235,0.230924567 L101.739849,0.230924567 L101.739849,13.5794018 L75.4511235,13.5794018 C68.9252432,13.5794018 63.5850406,18.9408439 63.5850406,25.4926794 C63.5850406,32.0454493 68.9252432,37.4059571 75.4511235,37.4059571 L101.739849,37.4059571 L101.739849,50.7553686 L75.4511235,50.7553686 C61.6120134,50.7553686 50.2894436,39.3877658 50.2894436,25.4926794 Z" id="Path" transform="translate(76.014646, 25.493147) scale(-1, 1) translate(-76.014646, -25.493147) "></path>
                </g>
                <g id="Group" transform="translate(204.500000, 90.500000) scale(-1, 1) translate(-204.500000, -90.500000) translate(197.000000, 83.000000)" fill="#FFE0B2">
                    <path d="M7.33129182,0.225445448 C3.36649714,0.225445448 0.151721385,3.39080907 0.151721385,7.294575 C0.151721385,11.1983409 3.36649714,14.3637045 7.33129182,14.3637045 C11.2960865,14.3637045 14.509908,11.1983409 14.509908,7.294575 C14.509908,3.39080907 11.2960865,0.225445448 7.33129182,0.225445448" id="Path"></path>
                </g>
            </g>
        </g>
    </g>
</svg>