<?xml version="1.0" encoding="UTF-8"?>
<svg width="436px" height="580px" viewBox="0 0 436 580" version="1.1" xmlns="http://www.w3.org/2000/svg" xmlns:xlink="http://www.w3.org/1999/xlink">
    <!-- Generator: Sketch 64 (93537) - https://sketch.com -->
    <title>Background</title>
    <desc>Created with Sketch.</desc>
    <defs>
        <linearGradient x1="0.00298703626%" y1="50.0053415%" x2="100.008961%" y2="50.0053415%" id="linearGradient-1">
            <stop stop-color="#FF9800" offset="0%"></stop>
            <stop stop-color="#FFE0B2" offset="100%"></stop>
        </linearGradient>
        <linearGradient x1="0.00550994545%" y1="49.9955396%" x2="99.9926534%" y2="49.9955396%" id="linearGradient-2">
            <stop stop-color="#E91E63" offset="0%"></stop>
            <stop stop-color="#F8BBD0" offset="100%"></stop>
        </linearGradient>
        <linearGradient x1="-0.025683832%" y1="50%" x2="100.012842%" y2="50%" id="linearGradient-3">
            <stop stop-color="#FF9800" offset="0%"></stop>
            <stop stop-color="#FFE0B2" offset="100%"></stop>
        </linearGradient>
        <linearGradient x1="-0.00642095801%" y1="49.9812874%" x2="99.9678952%" y2="49.9812874%" id="linearGradient-4">
            <stop stop-color="#E91E63" offset="0%"></stop>
            <stop stop-color="#F8BBD0" offset="100%"></stop>
        </linearGradient>
        <linearGradient x1="50.0026816%" y1="0%" x2="50.0026816%" y2="99.9944947%" id="linearGradient-5">
            <stop stop-color="#E91E63" offset="0%"></stop>
            <stop stop-color="#FF9800" offset="100%"></stop>
        </linearGradient>
        <linearGradient x1="37.4447118%" y1="81.8950304%" x2="57.3592181%" y2="18.2202568%" id="linearGradient-6">
            <stop stop-color="#FF9800" offset="0%"></stop>
            <stop stop-color="#FFE0B2" offset="100%"></stop>
        </linearGradient>
        <linearGradient x1="0.00924675901%" y1="49.9976207%" x2="100.003699%" y2="49.9976207%" id="linearGradient-7">
            <stop stop-color="#00BCD4" offset="0%"></stop>
            <stop stop-color="#B2EBF2" offset="100%"></stop>
        </linearGradient>
        <linearGradient x1="-0.0282226769%" y1="50.0067841%" x2="100.021167%" y2="50.0067841%" id="linearGradient-8">
            <stop stop-color="#00BCD4" offset="0%"></stop>
            <stop stop-color="#B2EBF2" offset="100%"></stop>
        </linearGradient>
        <linearGradient x1="49.9980397%" y1="100.021167%" x2="49.9980397%" y2="-0.0282226769%" id="linearGradient-9">
            <stop stop-color="#00BCD4" offset="0%"></stop>
            <stop stop-color="#B2EBF2" offset="100%"></stop>
        </linearGradient>
        <linearGradient x1="100.021166%" y1="49.9788345%" x2="-0.0211655143%" y2="49.9788345%" id="linearGradient-10">
            <stop stop-color="#FF9800" offset="0%"></stop>
            <stop stop-color="#FFE0B2" offset="100%"></stop>
        </linearGradient>
        <linearGradient x1="0.00203249967%" y1="50.0003387%" x2="100.001016%" y2="50.0003387%" id="linearGradient-11">
            <stop stop-color="#FF9800" offset="0%"></stop>
            <stop stop-color="#E91E63" offset="100%"></stop>
        </linearGradient>
        <linearGradient x1="99.9788345%" y1="49.9858897%" x2="0.00705517144%" y2="49.9858897%" id="linearGradient-12">
            <stop stop-color="#00BCD4" offset="0%"></stop>
            <stop stop-color="#B2EBF2" offset="100%"></stop>
        </linearGradient>
        <linearGradient x1="99.9717793%" y1="50.0352759%" x2="8.02080131e-13%" y2="50.0352759%" id="linearGradient-13">
            <stop stop-color="#00BCD4" offset="0%"></stop>
            <stop stop-color="#B2EBF2" offset="100%"></stop>
        </linearGradient>
        <linearGradient x1="99.9929448%" y1="49.9929448%" x2="0.0211655143%" y2="49.9929448%" id="linearGradient-14">
            <stop stop-color="#E91E63" offset="0%"></stop>
            <stop stop-color="#F8BBD0" offset="100%"></stop>
        </linearGradient>
        <linearGradient x1="100.01411%" y1="49.9647241%" x2="-0.0282206858%" y2="49.9647241%" id="linearGradient-15">
            <stop stop-color="#E91E63" offset="0%"></stop>
            <stop stop-color="#F8BBD0" offset="100%"></stop>
        </linearGradient>
        <linearGradient x1="100.01411%" y1="50.0282207%" x2="-0.0282206858%" y2="50.0282207%" id="linearGradient-16">
            <stop stop-color="#00BCD4" offset="0%"></stop>
            <stop stop-color="#B2EBF2" offset="100%"></stop>
        </linearGradient>
        <linearGradient x1="50.0004759%" y1="100%" x2="50.0004759%" y2="0.00554805541%" id="linearGradient-17">
            <stop stop-color="#E91E63" offset="0%"></stop>
            <stop stop-color="#FF9800" offset="100%"></stop>
        </linearGradient>
        <linearGradient x1="95.0274044%" y1="99.9926026%" x2="95.0274044%" y2="-0.0018493518%" id="linearGradient-18">
            <stop stop-color="#E91E63" offset="0%"></stop>
            <stop stop-color="#FF9800" offset="100%"></stop>
        </linearGradient>
        <linearGradient x1="37.4430029%" y1="81.8966476%" x2="57.3624101%" y2="18.2181412%" id="linearGradient-19">
            <stop stop-color="#FF9800" offset="0%"></stop>
            <stop stop-color="#FFE0B2" offset="100%"></stop>
        </linearGradient>
        <linearGradient x1="50.0013568%" y1="99.9717773%" x2="50.0013568%" y2="-0.00705566923%" id="linearGradient-20">
            <stop stop-color="#FF9800" offset="0%"></stop>
            <stop stop-color="#FFE0B2" offset="100%"></stop>
        </linearGradient>
        <linearGradient x1="100.035276%" y1="49.9929448%" x2="-0.00705517144%" y2="49.9929448%" id="linearGradient-21">
            <stop stop-color="#E91E63" offset="0%"></stop>
            <stop stop-color="#F8BBD0" offset="100%"></stop>
        </linearGradient>
        <linearGradient x1="100%" y1="50.0490589%" x2="-0.01481586%" y2="49.9999836%" id="linearGradient-22">
            <stop stop-color="#E91E63" offset="0%"></stop>
            <stop stop-color="#F8BBD0" offset="100%"></stop>
        </linearGradient>
    </defs>
    <g id="Page-1" stroke="none" stroke-width="1" fill="none" fill-rule="evenodd">
        <g id="Background" transform="translate(206.000000, 290.000000) scale(1, -1) rotate(-90.000000) translate(-206.000000, -290.000000) translate(-84.000000, 60.000000)">
            <g id="Group" transform="translate(227.000000, 37.000000)" fill="url(#linearGradient-1)">
                <path d="M0.305984496,91.4599169 L0.305984496,48.4659532 C0.305984496,24.5350466 18.0068127,4.44499757 41.2649143,0.0361475056 L41.2649143,0.811380543 C41.4537231,0.802169854 41.6409586,0.797564509 41.8297674,0.796029394 C47.9880822,0.796029394 52.9805025,5.66848417 52.9805025,11.6753889 C52.9805025,15.7035304 50.7352508,19.2204787 47.4012014,21.1009945 C45.2755286,21.3573587 43.2222326,21.8455253 41.2664877,22.5409323 L41.2649143,22.5409323 L41.2649143,22.5409323 C30.4115531,26.397141 22.6058812,36.5856988 22.6058812,48.4659532 L22.6058812,90.4927945 L22.4391001,90.4927945 C22.0457484,96.1512281 17.2169624,100.624553 11.3166864,100.624553 C5.75626618,100.624553 1.14775722,96.6516756 0.305984496,91.4599169 Z" id="Path"></path>
            </g>
            <g id="Group" transform="translate(156.500000, 156.500000)" fill="#B2EBF2">
                <path d="M22.8377644,10.7684102 C28.6738582,36.6086001 51.9407699,55.9192218 79.7578826,55.9192218 C81.2560251,55.9192218 82.7402242,55.8623762 84.2104798,55.753294 C90.1751628,55.8654489 94.9763454,60.695793 94.9763454,66.6384682 C94.9763454,72.6502801 90.060517,77.5251788 83.9966808,77.5251788 C83.8107686,77.5251788 83.6248564,77.5205697 83.4420427,77.5113515 L83.4420427,77.6081428 C82.21967,77.6619157 80.9926495,77.6941794 79.7578826,77.6941794 C40.2871735,77.6941794 7.47057186,49.4511084 0.734353186,12.2341062 L0.732803918,12.224888 C0.711114161,12.0497419 0.695621478,11.8715231 0.683227331,11.6933043 C0.275769762,5.69378345 4.85075913,0.502392657 10.9006519,0.0998639838 C16.9505447,-0.304201058 22.1855224,4.23269655 22.5914307,10.2322174 C22.6038249,10.4165817 22.6115712,10.5994096 22.6146697,10.7837739 L22.8377644,10.7684102 Z" id="Path"></path>
            </g>
            <g id="Group" transform="translate(237.500000, 157.500000) scale(-1, 1) translate(-237.500000, -157.500000) translate(226.000000, 146.000000)" fill="#00BCD4">
                <path d="M11.4669862,0.8277199 C5.46754978,0.8277199 0.603928964,5.69134072 0.603928964,11.6907772 C0.603928964,17.6902136 5.46754978,22.5538345 11.4669862,22.5538345 C17.4664227,22.5538345 22.3285107,17.6902136 22.3285107,11.6907772 C22.3285107,5.69134072 17.4664227,0.8277199 11.4669862,0.8277199" id="Path"></path>
            </g>
            <g id="Group" transform="translate(195.500000, 114.500000)" fill="url(#linearGradient-2)">
                <path d="M42.7442802,24.5358343 C53.2868635,24.5358343 61.8322976,33.213048 61.8322976,43.9184224 C61.8322976,54.6222626 53.2868635,63.2994763 42.7442802,63.2994763 C32.2016969,63.2994763 23.6547074,54.6222626 23.6547074,43.9184224 C23.6547074,33.213048 32.2016969,24.5358343 42.7442802,24.5358343 Z M42.7442802,0.923564826 C66.1283459,0.923564826 85.0872641,20.1726809 85.0872641,43.9184224 C85.0872641,67.6626297 66.1283459,86.9117458 42.7442802,86.9117458 C19.3586591,86.9117458 0.399740912,67.6626297 0.399740912,43.9184224 C0.399740912,20.1726809 19.3586591,0.923564826 42.7442802,0.923564826 Z" id="Shape"></path>
            </g>
            <g id="Group" transform="translate(238.500000, 126.000000) scale(-1, 1) translate(-238.500000, -126.000000) translate(226.500000, 114.500000)" fill="#FF9800">
                <path d="M11.8575092,0.37466488 C5.51383768,0.37466488 0.370196471,5.430454 0.370196471,11.6656357 C0.370196471,17.9008174 5.51383768,22.9566065 11.8575092,22.9566065 C18.2011807,22.9566065 23.3432951,17.9008174 23.3432951,11.6656357 C23.3432951,5.430454 18.2011807,0.37466488 11.8575092,0.37466488" id="Path"></path>
            </g>
            <g id="Group" transform="translate(260.500000, 51.500000)" fill="#00BCD4">
                <path d="M61.4865282,44.0924786 C60.9383617,54.2925031 52.6068539,62.3933344 42.4065965,62.3933344 C31.8512768,62.3933344 23.2939617,53.7205534 23.2939617,43.020648 C23.2939617,33.8617865 29.5651733,26.1887675 37.991676,24.1693099 C39.8292796,23.9331698 41.291576,23.9377699 42.4065965,24.1647097 L38.6317227,0.221026227 C16.9869324,2.15614813 0.0109010384,20.5781407 0.0109010384,43.020648 C0.0109010384,66.7542588 18.9927234,85.9935414 42.4065965,85.9935414 C65.2816469,85.9935414 83.9239798,67.6267504 84.7680316,44.6490945 C84.8381097,44.1262129 84.8739274,43.594131 84.8739274,43.0528489 C84.8739274,36.494595 79.6289707,31.1768432 73.1568685,31.1768432 C66.6878808,31.1768432 61.4413668,36.494595 61.4413668,43.0528489 C61.4413668,43.4024589 61.4569397,43.7490021 61.4865282,44.0924786" id="Path"></path>
            </g>
            <g id="Group" transform="translate(290.000000, 51.000000)" fill="url(#linearGradient-3)">
                <ellipse id="Oval" cx="12.0203497" cy="11.9619347" rx="11.371943" ry="11.706369"></ellipse>
            </g>
            <g id="Group" transform="translate(194.500000, 29.500000)" fill="url(#linearGradient-4)">
                <ellipse id="Oval" cx="11.3720774" cy="12.3200847" rx="11.3522001" ry="11.6500884"></ellipse>
            </g>
            <g id="Group" transform="translate(83.500000, 242.500000)" fill="url(#linearGradient-5)">
                <path d="M44.2638286,62.0796082 C54.4690665,61.5321031 62.5740382,53.2122037 62.5740382,43.022699 C62.5740382,32.4801157 53.8968245,23.9346816 43.1914502,23.9346816 C34.0279075,23.9346816 26.3509666,30.1983261 24.3304768,38.6146611 C24.094216,40.4484919 24.0988185,41.9090239 24.3258743,43.022699 L0.369952798,39.25238 C2.30606378,17.6352625 20.7374721,0.679715092 43.1914502,0.679715092 C66.9371917,0.679715092 86.1863077,19.6386333 86.1863077,43.022699 C86.1863077,65.8701475 67.8101292,84.4915413 44.820729,85.3345746 C44.2975801,85.4030128 43.7652263,85.4387872 43.2236676,85.4387872 C36.6620616,85.4387872 31.3415918,80.2001592 31.3415918,73.7374219 C31.3415918,67.2746846 36.6620616,62.0360566 43.2236676,62.0360566 C43.5749904,62.0360566 43.9201766,62.0516107 44.2638286,62.0796082 Z" id="Path"></path>
            </g>
            <g id="Group" transform="translate(96.000000, 285.000000) scale(-1, 1) rotate(90.000000) translate(-96.000000, -285.000000) translate(84.000000, 273.000000)" fill="#00BCD4">
                <path d="M11.9613286,0.0811909253 C18.5263797,0.0811909253 23.8501781,5.29727965 23.8501781,11.7312793 C23.8501781,18.165279 18.5263797,23.3813677 11.9613286,23.3813677 C5.39475071,23.3813677 0.072479037,18.165279 0.072479037,11.7312793 C0.072479037,5.29727965 5.39475071,0.0811909253 11.9613286,0.0811909253" id="Path"></path>
            </g>
            <g id="Group" transform="translate(349.552256, 139.550277) rotate(55.322418) translate(-349.552256, -139.550277) translate(320.552256, 76.550277)" fill="url(#linearGradient-6)">
                <path d="M21.0123318,3.68666605 C60.8662636,36.8544662 67.8526286,82.896063 41.018811,120.74958 C29.4237609,133.055551 14.2436634,121.126592 21.0123318,110.52256 C38.4218903,81.1341102 44.3738102,54.7771426 8.07404685,23.1527824 C-10.7574879,8.69091983 9.05599783,-7.32515438 21.0123318,3.68666605 Z" id="Path"></path>
            </g>
            <g id="Group" transform="translate(284.500000, 202.500000)" fill="url(#linearGradient-7)">
                <path d="M42.316497,0.337304241 C65.4734171,0.337304241 84.4194217,18.9744344 84.4194217,41.7519576 L84.4194217,119.872582 C84.4194217,142.650105 65.4734171,161.285704 42.316497,161.285704 C19.1580196,161.285704 0.212014956,142.650105 0.212014956,119.872582 L0.212014956,41.7519576 C0.212014956,18.9744344 19.1580196,0.337304241 42.316497,0.337304241 Z M42.316497,22.2218015 C53.2362229,22.2218015 62.1719597,31.0096059 62.1719597,41.7519576 L62.1719597,119.872582 C62.1719597,130.613402 53.2362229,139.402738 42.316497,139.402738 C31.3952138,139.402738 22.4610343,130.613402 22.4610343,119.872582 L22.4610343,41.7519576 C22.4610343,31.0096059 31.3952138,22.2218015 42.316497,22.2218015 Z" id="Shape"></path>
            </g>
            <g id="Group" transform="translate(327.000000, 213.500000) scale(-1, 1) rotate(90.000000) translate(-327.000000, -213.500000) translate(315.500000, 202.500000)" fill="#FFE0B2">
                <path d="M11.2278672,0.266928564 C17.2257708,0.266928564 22.0893916,5.12135539 22.0893916,11.1094508 C22.0893916,17.0960162 17.2257708,21.950443 11.2278672,21.950443 C5.2284307,21.950443 0.364809882,17.0960162 0.364809882,11.1094508 C0.364809882,5.12135539 5.2284307,0.266928564 11.2278672,0.266928564" id="Path"></path>
            </g>
            <g id="Group" transform="translate(413.500000, 216.500000)" fill="#00BCD4">
                <path d="M0.473416523,42.2555026 C0.473416523,19.3263868 19.2963952,0.724854927 42.4984767,0.724854927 C65.7005582,0.724854927 84.5250942,19.3263868 84.5250942,42.2555026 C84.5250942,42.701804 84.5141931,43.1465663 84.5001775,43.5897897 C83.6748132,48.8053595 79.1088354,52.797448 73.5991392,52.797448 C67.7592972,52.797448 62.9799705,48.314428 62.5890904,42.6402452 L62.4473769,42.6402452 C62.4504915,42.5125107 62.4520488,42.3847761 62.4520488,42.2555026 C62.4520488,31.3657501 53.5194265,22.5366785 42.4984767,22.5366785 C31.4775269,22.5366785 22.5449046,31.3657501 22.5449046,42.2555026 C22.5449046,53.1452552 31.4775269,61.9743268 42.4984767,61.9743268 C42.9127162,61.9743268 43.323841,61.9604761 43.7318513,61.9358526 C49.6604589,62.1220679 54.4101971,66.9313496 54.4101971,72.8363779 C54.4101971,78.858368 49.4689121,83.7415202 43.3752317,83.7415202 C43.1867994,83.7415202 43.0014818,83.7369033 42.8161641,83.7276695 L42.8161641,83.7830724 C42.7102683,83.7830724 42.6043725,83.7861504 42.4984767,83.7861504 C19.2963952,83.7861504 0.473416523,65.1846185 0.473416523,42.2555026" id="Path"></path>
            </g>
            <g id="Group" transform="translate(289.500000, 403.500000)" fill="url(#linearGradient-8)">
                <path d="M11.1826071,0.427754418 C17.1575185,0.427754418 22.0456644,5.19736574 22.0456644,11.0273892 L22.0456644,44.9456224 C22.0456644,50.7741503 17.1575185,55.5437616 11.1826071,55.5437616 C5.20769566,55.5437616 0.321082622,50.7741503 0.321082622,44.9456224 L0.321082622,11.0273892 C0.321082622,5.19736574 5.20769566,0.427754418 11.1826071,0.427754418 Z" id="Path"></path>
            </g>
            <g id="Group" transform="translate(361.000000, 437.000000)" fill="url(#linearGradient-9)">
                <path d="M0.0503409646,11.3888127 C0.0503409646,5.41543409 4.91510873,0.527288232 10.859919,0.527288232 L105.966205,0.527288232 C111.911015,0.527288232 116.775783,5.41543409 116.775783,11.3888127 C116.775783,17.3637241 111.911015,22.25187 105.966205,22.25187 L10.859919,22.25187 C4.91510873,22.25187 0.0503409646,17.3637241 0.0503409646,11.3888127 Z" id="Path"></path>
            </g>
            <g id="Group" transform="translate(466.500000, 448.500000) rotate(-90.000000) translate(-466.500000, -448.500000) translate(455.000000, 437.000000)" fill="url(#linearGradient-10)">
                <circle id="Oval" cx="11.4393956" cy="11.3888127" r="10.8630573"></circle>
            </g>
            <g id="Group" transform="translate(313.000000, 277.000000)" fill="url(#linearGradient-11)" fill-rule="nonzero">
                <path d="M22.9762885,73.5953317 C26.042732,85.7265643 31.8954204,92.5193229 38.3037837,95.087949 C41.1404014,96.2251568 44.1423048,96.5529044 47.0513334,96.1687538 C49.9902708,95.7785055 52.8835579,94.6260536 55.4635892,92.8135335 C61.141547,88.8256842 65.1115524,81.6274333 64.8266313,72.1349496 L64.8266313,71.6700054 C65.3508232,45.1331245 77.2293565,28.4271458 93.3549457,17.6373915 C108.18501,7.71502493 126.254674,3.32168333 141.862367,0.81098464 C142.736021,0.599092037 143.649027,0.484761495 144.590369,0.484761495 C150.750016,0.484761495 155.744793,5.32323001 155.744793,11.2882354 C155.744793,16.9590303 151.231706,21.6099967 145.492357,22.0551236 C132.390709,24.16033 117.425268,27.7106744 105.992219,35.3616742 C95.3368001,42.4898024 87.4739225,53.7140127 87.0551987,71.7934823 C87.4928123,88.9964178 79.6724368,102.461507 68.5353279,110.284765 C63.02423,114.155235 56.6583688,116.640018 50.013883,117.521126 C43.3379143,118.405282 36.4226749,117.640029 29.8506,115.005854 C17.3313878,109.98903 6.30289524,98.3578025 1.32228572,78.6777053 C1.01375238,77.6868406 0.846892518,76.6365241 0.846892518,75.5496217 C0.846892518,69.5830919 5.84166939,64.7461478 12.0028912,64.7461478 C17.4746354,64.7461478 22.0270762,68.5632634 22.9762885,73.5953317 Z" id="Path"></path>
            </g>
            <g id="Group" transform="translate(456.500000, 289.000000) rotate(-90.000000) translate(-456.500000, -289.000000) translate(445.500000, 277.500000)" fill="url(#linearGradient-12)">
                <ellipse id="Oval" cx="10.9879894" cy="11.6279318" rx="10.910288" ry="10.8630573"></ellipse>
            </g>
            <g id="Group" transform="translate(326.500000, 353.500000) scale(-1, 1) rotate(90.000000) translate(-326.500000, -353.500000) translate(315.000000, 342.000000)" fill="#E91E63">
                <path d="M11.6877115,0.528821047 C17.6856152,0.528821047 22.5507688,5.39244187 22.5507688,11.3903455 C22.5507688,17.389782 17.6856152,22.2534028 11.6877115,22.2534028 C5.68827509,22.2534028 0.824654271,17.389782 0.824654271,11.3903455 C0.824654271,5.39244187 5.68827509,0.528821047 11.6877115,0.528821047" id="Path"></path>
            </g>
            <g id="Group" transform="translate(238.500000, 271.500000)" fill="#F8BBD0">
                <path d="M0.607343566,49.1612599 C0.607343566,21.7229702 23.5991908,0.0876928585 51.1430001,0.0876928585 C82.2934959,0.0876928585 108.102483,28.7692656 100.183657,59.138261 C98.4145744,62.8235426 94.6116693,65.3731182 90.2045352,65.3731182 C84.1092974,65.3731182 79.1680125,60.4968052 79.1680125,54.4832492 C79.1680125,52.6882497 79.4311947,50.9762381 79.4311947,49.1612599 C79.4311947,34.1850006 66.7657454,22.0441645 51.1430001,22.0441645 C35.5202549,22.0441645 22.8563629,34.1850006 22.8563629,49.1612599 C22.8563629,59.1597764 28.4999862,67.8919575 36.9000149,72.5946105 C42.2851278,76.3628801 41.7322894,80.5814365 41.7322894,81.704848 C41.7322894,87.7199408 36.7910045,92.5962538 30.6957667,92.5962538 C29.6586108,92.5962538 29.2178974,92.8006502 27.3958667,92.4717718 C11.5582152,84.2667181 0.607343566,68.0963539 0.607343566,49.1612599" id="Path"></path>
            </g>
            <g id="Group" transform="translate(484.500000, 289.000000) rotate(-90.000000) translate(-484.500000, -289.000000) translate(473.500000, 277.500000)" fill="url(#linearGradient-13)">
                <ellipse id="Oval" cx="10.9156339" cy="11.8134023" rx="10.910288" ry="10.8630573"></ellipse>
            </g>
            <g id="Group" transform="translate(484.500000, 259.000000) rotate(-90.000000) translate(-484.500000, -259.000000) translate(473.500000, 247.500000)" fill="url(#linearGradient-14)">
                <ellipse id="Oval" cx="11.1087278" cy="11.7934758" rx="10.8425222" ry="10.8630573"></ellipse>
            </g>
            <g id="Group" transform="translate(453.000000, 191.500000) rotate(90.000000) translate(-453.000000, -191.500000) translate(441.500000, 180.500000)" fill="url(#linearGradient-15)">
                <ellipse id="Oval" cx="11.5804145" cy="10.9294039" rx="10.8630573" ry="10.8425222"></ellipse>
            </g>
            <g id="Group" transform="translate(61.000000, 68.000000)" fill="#B2EBF2">
                <path d="M44.5556922,0.780263959 C71.9529772,1.11488309 93.2809034,24.143464 92.9509635,51.415694 C92.5780548,82.2577087 63.6308197,107.462085 33.4021904,99.2523512 C29.7421599,97.4543517 27.24229,93.6578895 27.2960011,89.2955046 C27.3681275,83.2600241 32.2972755,78.427322 38.3021809,78.5013392 C40.0930638,78.5229275 41.7995434,78.8035758 43.6119107,78.8251641 C58.5666266,79.0086649 70.8403893,66.616963 71.027611,51.1473819 C71.2148327,35.6793428 59.2433869,22.9915724 44.2902057,22.8096136 C34.3076067,22.6877937 25.5189297,28.1696877 20.7232922,36.4287663 C16.8959899,41.7148234 12.691175,41.1165182 11.5693795,41.10264 C5.56447406,41.0286228 0.753490558,36.0771849 0.827151549,30.0432465 C0.839428381,29.0147167 0.639929863,28.57524 0.991354176,26.7772404 C9.37336116,11.1935496 25.6509057,0.548960414 44.5556922,0.780263959" id="Path"></path>
            </g>
            <g id="Group" transform="translate(453.500000, 160.500000) rotate(-90.000000) translate(-453.500000, -160.500000) translate(442.000000, 149.000000)" fill="url(#linearGradient-16)">
                <circle id="Oval" cx="11.5804145" cy="11.4378628" r="10.8630573"></circle>
            </g>
            <g id="Group" transform="translate(22.500000, 117.500000)" fill="url(#linearGradient-17)">
                <path d="M0.112825208,42.0248778 C0.112825208,19.1403921 18.8634581,0.417281629 41.7815834,0.417281629 L120.384434,0.417281629 C143.3041,0.417281629 162.054733,19.1403921 162.054733,42.0248778 C162.054733,64.9109025 143.3041,83.634013 120.384434,83.634013 L41.7815834,83.634013 C18.8634581,83.634013 0.112825208,64.9109025 0.112825208,42.0248778 Z M22.1308707,42.0248778 C22.1308707,31.2336194 30.974462,22.4030088 41.7815834,22.4030088 L120.385975,22.4030088 C131.193096,22.4030088 140.036688,31.2336194 140.036688,42.0248778 C140.036688,52.8176753 131.193096,61.6467469 120.385975,61.6467469 L41.7815834,61.6467469 C30.974462,61.6467469 22.1308707,52.8176753 22.1308707,42.0248778 Z" id="Shape"></path>
            </g>
            <g id="Group" transform="translate(33.500000, 159.000000) scale(-1, 1) translate(-33.500000, -159.000000) translate(22.500000, 147.500000)" fill="#00BCD4">
                <path d="M11.0141606,0.33027951 C4.98863961,0.33027951 0.105412089,5.19390033 0.105412089,11.191804 C0.105412089,17.1912404 4.98863961,22.0548613 11.0141606,22.0548613 C17.0396815,22.0548613 21.9244485,17.1912404 21.9244485,11.191804 C21.9244485,5.19390033 17.0396815,0.33027951 11.0141606,0.33027951" id="Path"></path>
            </g>
            <g id="Group" transform="translate(174.500000, 158.000000) scale(-1, 1) translate(-174.500000, -158.000000) translate(162.500000, 146.500000)" fill="#FF9800">
                <path d="M11.6300225,0.39507464 C5.28635103,0.39507464 0.144236572,5.45086376 0.144236572,11.6860454 C0.144236572,17.9212271 5.28635103,22.9770163 11.6300225,22.9770163 C17.973694,22.9770163 23.1173352,17.9212271 23.1173352,11.6860454 C23.1173352,5.45086376 17.973694,0.39507464 11.6300225,0.39507464" id="Path"></path>
            </g>
            <g id="Group" transform="translate(322.000000, 99.000000)" fill="#FFE0B2">
                <path d="M8.49049408,102.612745 C9.88252059,102.578296 11.2667617,102.512531 12.6416604,102.413883 L12.6634595,102.417015 L12.6634595,102.413883 C57.130454,99.2320925 92.2269614,61.950965 92.2269614,16.420983 C92.2269614,15.1745729 92.1942628,13.935992 92.1428793,12.7021087 L92.1833633,12.698977 C92.1615642,12.5142077 92.1444363,12.3278725 92.1319797,12.1399715 C91.7224686,6.02535925 96.3205159,0.734379805 102.4009,0.324129253 C108.367618,-0.0798579318 113.546455,4.36713278 114.122573,10.3126341 C114.234683,12.3341359 114.295409,14.371296 114.295409,16.420983 C114.295409,74.9130034 68.2308534,122.575662 10.5941046,124.744353 L10.6190178,124.485989 C10.4337257,124.47816 10.2468765,124.465633 10.0615844,124.448409 C3.99365675,123.880008 -0.46736781,118.473157 0.0978510088,112.371071 C0.54628908,107.523225 4.03258367,103.696307 8.49049408,102.612745" id="Path"></path>
            </g>
            <g id="Group" transform="translate(412.500000, 311.500000)" fill="url(#linearGradient-18)">
                <path d="M0.679592152,41.9879426 C0.679592152,19.1034569 19.2175252,0.380346346 41.875676,0.380346346 L84.9170202,0.380346346 L84.9170202,22.3660735 L41.875676,22.3660735 C31.1911465,22.3660735 22.4478735,31.1966841 22.4478735,41.9879426 C22.4478735,52.78074 31.1911465,61.6098116 41.875676,61.6098116 L84.9170202,61.6098116 L84.9170202,83.5970778 L41.875676,83.5970778 C19.2175252,83.5970778 0.679592152,64.8739672 0.679592152,41.9879426 Z" id="Path"></path>
                <path d="M82.336638,41.9879426 C82.336638,19.1034569 100.874571,0.380346346 123.532722,0.380346346 L166.574066,0.380346346 L166.574066,22.3660735 L123.532722,22.3660735 C112.848192,22.3660735 104.104919,31.1966841 104.104919,41.9879426 C104.104919,52.78074 112.848192,61.6098116 123.532722,61.6098116 L166.574066,61.6098116 L166.574066,83.5970778 L123.532722,83.5970778 C100.874571,83.5970778 82.336638,64.8739672 82.336638,41.9879426 Z" id="Path" transform="translate(124.455352, 41.988712) scale(-1, 1) translate(-124.455352, -41.988712) "></path>
            </g>
            <g id="Group" transform="translate(421.500000, 353.000000) scale(-1, 1) translate(-421.500000, -353.000000) translate(409.500000, 341.500000)" fill="#FF9800">
                <path d="M11.7300669,0.36008648 C5.38639543,0.36008648 0.242754216,5.4158756 0.242754216,11.6510573 C0.242754216,17.886239 5.38639543,22.9420281 11.7300669,22.9420281 C18.0737384,22.9420281 23.2158529,17.886239 23.2158529,11.6510573 C23.2158529,5.4158756 18.0737384,0.36008648 11.7300669,0.36008648" id="Path"></path>
            </g>
            <g id="Group" transform="translate(147.720693, 66.553990) rotate(-40.142279) translate(-147.720693, -66.553990) translate(119.220693, 3.553990)" fill="url(#linearGradient-19)">
                <path d="M20.8217579,3.68880572 C60.6756821,36.8565995 67.6620458,82.8966487 40.8282333,120.750159 C29.2331855,133.057666 14.0530908,121.128709 20.8217579,110.52314 C38.2313131,81.136235 44.1847758,54.7792724 7.88501944,23.1549183 C-10.9480556,8.69151972 8.86542628,-7.32301259 20.8217579,3.68880572 Z" id="Path"></path>
            </g>
            <g id="Group" transform="translate(0.000000, 226.000000)" fill="url(#linearGradient-20)">
                <path d="M0.478018767,11.2554578 C0.478018767,5.2805464 5.33280172,0.392400545 11.2654104,0.392400545 L45.7893263,0.392400545 C51.7234574,0.392400545 56.5782404,5.2805464 56.5782404,11.2554578 C56.5782404,17.2288364 51.7234574,22.1169823 45.7893263,22.1169823 L11.2654104,22.1169823 C5.33280172,22.1169823 0.478018767,17.2288364 0.478018767,11.2554578 Z" id="Path"></path>
            </g>
            <g id="Group" transform="translate(456.500000, 127.000000) rotate(90.000000) translate(-456.500000, -127.000000) translate(445.500000, 115.500000)" fill="url(#linearGradient-21)">
                <ellipse id="Oval" cx="10.9734066" cy="11.2301243" rx="10.910288" ry="10.8630573"></ellipse>
            </g>
            <g id="Group" transform="translate(198.000000, 238.000000)" fill="#E91E63">
                <path d="M73.0714385,21.7981806 C46.8028043,24.8952915 25.2755404,45.6053264 22.4835195,72.6717117 C22.3346322,74.1293539 22.2410021,75.57942 22.202629,77.0203948 C21.4919607,82.8130831 16.2102983,87.002668 10.3039232,86.4087015 C4.32847659,85.8086742 -0.0245587324,80.5372218 0.583269895,74.638468 C0.603223865,74.4566416 0.626247677,74.2778455 0.653876251,74.0990495 L0.558711163,74.0899582 C0.626247677,72.8944491 0.716808003,71.6974249 0.841136586,70.4958549 C4.80123219,32.0925893 36.1658033,2.98217143 73.8327592,0.145678495 L73.8419687,0.143616765 C74.0184846,0.142648054 74.1965354,0.143616765 74.3761212,0.150224157 C80.3791963,0.353263715 85.0791237,5.32318723 84.8734443,11.2492149 C84.667765,17.1752426 79.6332248,21.8163633 73.6301497,21.6118085 C73.4444242,21.6057476 73.2617687,21.5951411 73.0791131,21.5799889 L73.0714385,21.7981806 Z" id="Path"></path>
            </g>
            <g id="Group" transform="translate(95.775976, 35.241164) rotate(48.002507) translate(-95.775976, -35.241164) translate(84.275976, 24.241164)" fill="url(#linearGradient-22)">
                <ellipse id="Oval" cx="11.5997001" cy="10.9733411" rx="10.9419548" ry="10.9056364"></ellipse>
            </g>
        </g>
    </g>
</svg>