<?xml version="1.0" encoding="UTF-8"?>
<svg width="457px" height="343px" viewBox="0 0 457 343" version="1.1" xmlns="http://www.w3.org/2000/svg" xmlns:xlink="http://www.w3.org/1999/xlink">
    <!-- Generator: Sketch 64 (93537) - https://sketch.com -->
    <title>Background</title>
    <desc>Created with Sketch.</desc>
    <defs>
        <linearGradient x1="0.00298703626%" y1="50.0053415%" x2="100.008961%" y2="50.0053415%" id="linearGradient-1">
            <stop stop-color="#FF9800" offset="0%"></stop>
            <stop stop-color="#FFE0B2" offset="100%"></stop>
        </linearGradient>
        <linearGradient x1="0.00550994545%" y1="49.9955396%" x2="99.9926534%" y2="49.9955396%" id="linearGradient-2">
            <stop stop-color="#E91E63" offset="0%"></stop>
            <stop stop-color="#F8BBD0" offset="100%"></stop>
        </linearGradient>
        <linearGradient x1="-0.025683832%" y1="50%" x2="100.012842%" y2="50%" id="linearGradient-3">
            <stop stop-color="#FF9800" offset="0%"></stop>
            <stop stop-color="#FFE0B2" offset="100%"></stop>
        </linearGradient>
        <linearGradient x1="-0.00642095801%" y1="49.9812874%" x2="99.9678952%" y2="49.9812874%" id="linearGradient-4">
            <stop stop-color="#E91E63" offset="0%"></stop>
            <stop stop-color="#F8BBD0" offset="100%"></stop>
        </linearGradient>
        <linearGradient x1="50.0026816%" y1="0%" x2="50.0026816%" y2="99.9944947%" id="linearGradient-5">
            <stop stop-color="#E91E63" offset="0%"></stop>
            <stop stop-color="#FF9800" offset="100%"></stop>
        </linearGradient>
        <linearGradient x1="37.4163084%" y1="81.8950304%" x2="57.3758667%" y2="18.2202568%" id="linearGradient-6">
            <stop stop-color="#FF9800" offset="0%"></stop>
            <stop stop-color="#FFE0B2" offset="100%"></stop>
        </linearGradient>
        <linearGradient x1="0.00924675901%" y1="49.9976207%" x2="100.003699%" y2="49.9976207%" id="linearGradient-7">
            <stop stop-color="#00BCD4" offset="0%"></stop>
            <stop stop-color="#B2EBF2" offset="100%"></stop>
        </linearGradient>
        <linearGradient x1="-0.0282226769%" y1="50.0067841%" x2="100.021167%" y2="50.0067841%" id="linearGradient-8">
            <stop stop-color="#00BCD4" offset="0%"></stop>
            <stop stop-color="#B2EBF2" offset="100%"></stop>
        </linearGradient>
        <linearGradient x1="49.9980397%" y1="100.021167%" x2="49.9980397%" y2="-0.0282226769%" id="linearGradient-9">
            <stop stop-color="#00BCD4" offset="0%"></stop>
            <stop stop-color="#B2EBF2" offset="100%"></stop>
        </linearGradient>
        <linearGradient x1="100.021166%" y1="49.9788345%" x2="-0.0211655143%" y2="49.9788345%" id="linearGradient-10">
            <stop stop-color="#FF9800" offset="0%"></stop>
            <stop stop-color="#FFE0B2" offset="100%"></stop>
        </linearGradient>
        <linearGradient x1="0.00203249967%" y1="50.0003387%" x2="100.001016%" y2="50.0003387%" id="linearGradient-11">
            <stop stop-color="#FF9800" offset="0%"></stop>
            <stop stop-color="#E91E63" offset="100%"></stop>
        </linearGradient>
        <linearGradient x1="99.9788345%" y1="49.9858897%" x2="0.00705517144%" y2="49.9858897%" id="linearGradient-12">
            <stop stop-color="#00BCD4" offset="0%"></stop>
            <stop stop-color="#B2EBF2" offset="100%"></stop>
        </linearGradient>
        <linearGradient x1="99.9717793%" y1="50.0352759%" x2="8.02080131e-13%" y2="50.0352759%" id="linearGradient-13">
            <stop stop-color="#00BCD4" offset="0%"></stop>
            <stop stop-color="#B2EBF2" offset="100%"></stop>
        </linearGradient>
        <linearGradient x1="99.9929448%" y1="49.9929448%" x2="0.0211655143%" y2="49.9929448%" id="linearGradient-14">
            <stop stop-color="#E91E63" offset="0%"></stop>
            <stop stop-color="#F8BBD0" offset="100%"></stop>
        </linearGradient>
        <linearGradient x1="100.01411%" y1="49.9647241%" x2="-0.0282206858%" y2="49.9647241%" id="linearGradient-15">
            <stop stop-color="#E91E63" offset="0%"></stop>
            <stop stop-color="#F8BBD0" offset="100%"></stop>
        </linearGradient>
        <linearGradient x1="100.01411%" y1="50.0282207%" x2="-0.0282206858%" y2="50.0282207%" id="linearGradient-16">
            <stop stop-color="#00BCD4" offset="0%"></stop>
            <stop stop-color="#B2EBF2" offset="100%"></stop>
        </linearGradient>
        <linearGradient x1="50.0004759%" y1="100%" x2="50.0004759%" y2="0.00554805541%" id="linearGradient-17">
            <stop stop-color="#E91E63" offset="0%"></stop>
            <stop stop-color="#FF9800" offset="100%"></stop>
        </linearGradient>
        <linearGradient x1="95.0274044%" y1="99.9926026%" x2="95.0274044%" y2="-0.0018493518%" id="linearGradient-18">
            <stop stop-color="#E91E63" offset="0%"></stop>
            <stop stop-color="#FF9800" offset="100%"></stop>
        </linearGradient>
        <linearGradient x1="37.4145956%" y1="81.8966476%" x2="57.3790659%" y2="18.2181412%" id="linearGradient-19">
            <stop stop-color="#FF9800" offset="0%"></stop>
            <stop stop-color="#FFE0B2" offset="100%"></stop>
        </linearGradient>
        <linearGradient x1="50.0013568%" y1="99.9717773%" x2="50.0013568%" y2="-0.00705566923%" id="linearGradient-20">
            <stop stop-color="#FF9800" offset="0%"></stop>
            <stop stop-color="#FFE0B2" offset="100%"></stop>
        </linearGradient>
        <linearGradient x1="100.035276%" y1="49.9929448%" x2="-0.00705517144%" y2="49.9929448%" id="linearGradient-21">
            <stop stop-color="#E91E63" offset="0%"></stop>
            <stop stop-color="#F8BBD0" offset="100%"></stop>
        </linearGradient>
        <linearGradient x1="100%" y1="50.0489482%" x2="-0.01481586%" y2="49.9999836%" id="linearGradient-22">
            <stop stop-color="#E91E63" offset="0%"></stop>
            <stop stop-color="#F8BBD0" offset="100%"></stop>
        </linearGradient>
    </defs>
    <g id="Page-1" stroke="none" stroke-width="1" fill="none" fill-rule="evenodd">
        <g id="Background" transform="translate(0.000000, -19.000000)">
            <g id="Group" transform="translate(180.000000, 30.000000)" fill="url(#linearGradient-1)">
                <path d="M0.236704988,71.5379548 L0.236704988,37.9090129 C0.236704988,19.190779 13.9297985,3.47678028 31.9219148,0.0282737915 L31.9219148,0.634644187 C32.0679745,0.627439787 32.212817,0.623837586 32.3588767,0.622636853 C37.1228561,0.622636853 40.984917,4.43376485 40.984917,9.13223486 C40.984917,12.2829595 39.2480242,15.0338398 36.6688539,16.5047383 C35.0244655,16.7052608 33.4360667,17.087094 31.923132,17.6310263 L31.9219148,17.6310263 L31.9219148,17.6310263 C23.5259185,20.6472687 17.4875685,28.6165367 17.4875685,37.9090129 L17.4875685,70.7814927 L17.3585491,70.7814927 C17.0542582,75.2073963 13.3187823,78.7063336 8.75441775,78.7063336 C4.45296063,78.7063336 0.887887658,75.5988354 0.236704988,71.5379548 Z" id="Path"></path>
            </g>
            <g id="Group" transform="translate(124.000000, 125.000000)" fill="#B2EBF2">
                <path d="M17.7876375,8.421449 C22.3331928,28.6298026 40.4550801,43.7316991 62.1209801,43.7316991 C63.2878375,43.7316991 64.4438348,43.6872429 65.5889721,43.601935 C70.2346816,43.689646 73.9741761,47.4672227 73.9741761,52.1146995 C73.9741761,56.8162447 70.1453875,60.6286655 65.4224505,60.6286655 C65.2776492,60.6286655 65.1328479,60.6250609 64.9904599,60.6178518 L64.9904599,60.6935475 C64.0383911,60.7356007 63.0827023,60.7608326 62.1209801,60.7608326 C31.3784496,60.7608326 5.81860037,38.6733027 0.571965279,9.56769844 L0.570758602,9.56048933 C0.553865112,9.42351612 0.541798334,9.28413988 0.532144912,9.14476364 C0.214788649,4.45283064 3.77810821,0.392896822 8.49018503,0.0780987566 C13.2022619,-0.237900828 17.2796262,3.31018576 17.5957757,8.00211875 C17.6054292,8.14630107 17.6114626,8.28928187 17.6138759,8.43346419 L17.7876375,8.421449 Z" id="Path"></path>
            </g>
            <g id="Group" transform="translate(187.000000, 124.000000) scale(-1, 1) translate(-187.000000, -124.000000) translate(178.000000, 115.000000)" fill="#00BCD4">
                <path d="M8.97416315,0.647780791 C4.278952,0.647780791 0.472640059,4.45409274 0.472640059,9.14930388 C0.472640059,13.844515 4.278952,17.650827 8.97416315,17.650827 C13.6693743,17.650827 17.4744866,13.844515 17.4744866,9.14930388 C17.4744866,4.45409274 13.6693743,0.647780791 8.97416315,0.647780791" id="Path"></path>
            </g>
            <g id="Group" transform="translate(155.000000, 90.000000)" fill="url(#linearGradient-2)">
                <path d="M33.3007764,19.1774337 C41.5141843,19.1774337 48.1716737,25.9596238 48.1716737,34.3270428 C48.1716737,42.6932627 41.5141843,49.4754527 33.3007764,49.4754527 C25.0873685,49.4754527 18.4286674,42.6932627 18.4286674,34.3270428 C18.4286674,25.9596238 25.0873685,19.1774337 33.3007764,19.1774337 Z M33.3007764,0.72186676 C51.518595,0.72186676 66.288915,15.7671529 66.288915,34.3270428 C66.288915,52.8857336 51.518595,67.9310197 33.3007764,67.9310197 C15.0817461,67.9310197 0.31142606,52.8857336 0.31142606,34.3270428 C0.31142606,15.7671529 15.0817461,0.72186676 33.3007764,0.72186676 Z" id="Shape"></path>
            </g>
            <g id="Group" transform="translate(188.500000, 99.500000) scale(-1, 1) translate(-188.500000, -99.500000) translate(179.000000, 90.000000)" fill="#FF9800">
                <path d="M9.38719476,0.309010561 C4.3651215,0.309010561 0.293072206,4.47884958 0.293072206,9.62141055 C0.293072206,14.7639715 4.3651215,18.9338105 9.38719476,18.9338105 C14.409268,18.9338105 18.4801086,14.7639715 18.4801086,9.62141055 C18.4801086,4.47884958 14.409268,0.309010561 9.38719476,0.309010561" id="Path"></path>
            </g>
            <g id="Group" transform="translate(205.000000, 42.000000)" fill="#00BCD4">
                <path d="M48.4658517,34.3469689 C48.0337675,42.29254 41.4665789,48.6028906 33.4263761,48.6028906 C25.1063005,48.6028906 18.3611227,41.8470051 18.3611227,33.5120389 C18.3611227,26.3775085 23.3043131,20.4004132 29.9463799,18.8273048 C31.3948439,18.6433574 32.5474776,18.6469408 33.4263761,18.8237214 L30.4508873,0.172174057 C13.3896996,1.67958698 0.00859258318,16.0298713 0.00859258318,33.5120389 C0.00859258318,51.9999447 14.9707349,66.9868781 33.4263761,66.9868781 C51.4572981,66.9868781 66.1518429,52.6795944 66.8171543,34.7805591 C66.8723924,34.3732471 66.9006251,33.9587682 66.9006251,33.5371226 C66.9006251,28.4284023 62.7663651,24.2860029 57.6648257,24.2860029 C52.5657414,24.2860029 48.4302538,28.4284023 48.4302538,33.5371226 C48.4302538,33.8094603 48.442529,34.079409 48.4658517,34.3469689" id="Path"></path>
            </g>
            <g id="Group" transform="translate(229.000000, 41.000000)" fill="url(#linearGradient-3)">
                <ellipse id="Oval" cx="9.51611019" cy="9.46986497" rx="9.00278824" ry="9.26754213"></ellipse>
            </g>
            <g id="Group" transform="translate(152.000000, 24.000000)" fill="url(#linearGradient-4)">
                <ellipse id="Oval" cx="9.40969388" cy="9.75340041" rx="9.36289977" ry="9.22298664"></ellipse>
            </g>
            <g id="Group" transform="translate(67.000000, 191.000000)" fill="url(#linearGradient-5)">
                <path d="M34.5970155,48.3643459 C42.5735233,47.9378012 48.9084437,41.4560192 48.9084437,33.5176841 C48.9084437,25.3042762 42.1262536,18.6467868 33.7588346,18.6467868 C26.5965254,18.6467868 20.5961578,23.5266029 19.0169244,30.083515 C18.8322608,31.5121972 18.8358582,32.6500535 19.0133271,33.5176841 L0.289158509,30.5803426 C1.80244065,13.7390999 16.2085989,0.529545479 33.7588346,0.529545479 C52.3187245,0.529545479 67.3640106,15.2998655 67.3640106,33.5176841 C67.3640106,51.3174405 53.0010205,65.8248054 35.0322939,66.4815872 C34.623396,66.5349053 34.2073033,66.5627761 33.784016,66.5627761 C28.6554045,66.5627761 24.4968764,62.4815194 24.4968764,57.4465961 C24.4968764,52.4116729 28.6554045,48.3304162 33.784016,48.3304162 C34.0586132,48.3304162 34.3284139,48.3425339 34.5970155,48.3643459 Z" id="Path"></path>
            </g>
            <g id="Group" transform="translate(76.500000, 224.500000) scale(-1, 1) rotate(90.000000) translate(-76.500000, -224.500000) translate(67.000000, 215.000000)" fill="#00BCD4">
                <path d="M9.46938513,0.0642761492 C14.6667173,0.0642761492 18.881391,4.19367972 18.881391,9.28726279 C18.881391,14.3808458 14.6667173,18.5102494 9.46938513,18.5102494 C4.27084431,18.5102494 0.0573792377,14.3808458 0.0573792377,9.28726279 C0.0573792377,4.19367972 4.27084431,0.0642761492 9.46938513,0.0642761492" id="Path"></path>
            </g>
            <g id="Group" transform="translate(275.594694, 110.159189) rotate(55.322418) translate(-275.594694, -110.159189) translate(253.094694, 60.659189)" fill="url(#linearGradient-6)">
                <path d="M16.5235283,2.89412069 C47.8637409,28.9470608 53.3576572,65.1122259 32.256162,94.8457452 C23.1380822,104.511949 11.2008037,95.1418837 16.5235283,86.8125337 C30.2140035,63.7282315 34.894456,43.0251249 6.34915956,18.1845398 C-8.45952492,6.82490669 7.12134315,-5.75554246 16.5235283,2.89412069 Z" id="Path"></path>
            </g>
            <g id="Group" transform="translate(224.000000, 161.000000)" fill="url(#linearGradient-7)">
                <path d="M33.3553565,0.264429868 C51.6084582,0.264429868 66.5423677,14.8750195 66.5423677,32.7314729 L66.5423677,93.9741847 C66.5423677,111.830638 51.6084582,126.440027 33.3553565,126.440027 C15.1010272,126.440027 0.167117671,111.830638 0.167117671,93.9741847 L0.167117671,32.7314729 C0.167117671,14.8750195 15.1010272,0.264429868 33.3553565,0.264429868 Z M33.3553565,17.420795 C41.9626698,17.420795 49.006133,24.3099997 49.006133,32.7314729 L49.006133,93.9741847 C49.006133,102.394457 41.9626698,109.284863 33.3553565,109.284863 C24.7468156,109.284863 17.7045799,102.394457 17.7045799,93.9741847 L17.7045799,32.7314729 C17.7045799,24.3099997 24.7468156,17.420795 33.3553565,17.420795 Z" id="Shape"></path>
            </g>
            <g id="Group" transform="translate(257.000000, 168.500000) scale(-1, 1) rotate(90.000000) translate(-257.000000, -168.500000) translate(248.000000, 160.000000)" fill="#FFE0B2">
                <path d="M8.78702647,0.206262981 C13.481038,0.206262981 17.28735,3.95741098 17.28735,8.58457559 C17.28735,13.210558 13.481038,16.961706 8.78702647,16.961706 C4.09181533,16.961706 0.285503386,13.210558 0.285503386,8.58457559 C0.285503386,3.95741098 4.09181533,0.206262981 8.78702647,0.206262981" id="Path"></path>
            </g>
            <g id="Group" transform="translate(326.000000, 170.000000)" fill="#00BCD4">
                <path d="M0.373163612,33.7037938 C0.373163612,15.4150942 15.2100997,0.578158097 33.4987993,0.578158097 C51.7874988,0.578158097 66.6256625,15.4150942 66.6256625,33.7037938 C66.6256625,34.0597722 66.6170699,34.4145232 66.6060223,34.7680466 C65.955441,38.9280843 62.3563761,42.1122502 58.0134391,42.1122502 C53.4102695,42.1122502 49.6430356,38.5365081 49.3349301,34.0106717 L49.2232265,34.0106717 C49.2256815,33.9087883 49.226909,33.8069048 49.226909,33.7037938 C49.226909,25.0179197 42.1859009,17.975684 33.4987993,17.975684 C24.8116977,17.975684 17.7706895,25.0179197 17.7706895,33.7037938 C17.7706895,42.3896679 24.8116977,49.4319035 33.4987993,49.4319035 C33.8253174,49.4319035 34.1493806,49.4208559 34.4709887,49.4012157 C39.1441264,49.5497447 42.8880377,53.3857193 42.8880377,58.0956824 C42.8880377,62.8989364 38.9931425,66.7938316 34.1898885,66.7938316 C34.0413595,66.7938316 33.8952856,66.7901491 33.7492117,66.782784 L33.7492117,66.8269744 C33.6657409,66.8269744 33.5822701,66.8294294 33.4987993,66.8294294 C15.2100997,66.8294294 0.373163612,51.9924933 0.373163612,33.7037938" id="Path"></path>
            </g>
            <g id="Group" transform="translate(229.000000, 318.000000)" fill="url(#linearGradient-8)">
                <path d="M8.75160554,0.336092757 C13.4276232,0.336092757 17.2531286,4.08364451 17.2531286,8.66437726 L17.2531286,35.3144176 C17.2531286,39.8939752 13.4276232,43.641527 8.75160554,43.641527 C4.07558791,43.641527 0.251282052,39.8939752 0.251282052,35.3144176 L0.251282052,8.66437726 C0.251282052,4.08364451 4.07558791,0.336092757 8.75160554,0.336092757 Z" id="Path"></path>
            </g>
            <g id="Group" transform="translate(284.000000, 344.000000)" fill="url(#linearGradient-9)">
                <path d="M0.0395843483,8.91298385 C0.0395843483,4.23816581 3.86487182,0.412660356 8.53942349,0.412660356 L83.3238536,0.412660356 C87.9984052,0.412660356 91.8236927,4.23816581 91.8236927,8.91298385 C91.8236927,13.5890015 87.9984052,17.4145069 83.3238536,17.4145069 L8.53942349,17.4145069 C3.86487182,17.4145069 0.0395843483,13.5890015 0.0395843483,8.91298385 Z" id="Path"></path>
            </g>
            <g id="Group" transform="translate(368.000000, 353.000000) rotate(-90.000000) translate(-368.000000, -353.000000) translate(359.000000, 344.000000)" fill="url(#linearGradient-10)">
                <circle id="Oval" cx="8.95257045" cy="8.91298385" r="8.50152309"></circle>
            </g>
            <g id="Group" transform="translate(248.000000, 219.000000)" fill="url(#linearGradient-11)" fill-rule="nonzero">
                <path d="M17.8213519,58.0031004 C20.1998114,67.5641566 24.7393966,72.9177714 29.7099861,74.9421971 C31.9101831,75.8384711 34.2385826,76.0967806 36.4949445,75.7940178 C38.7745049,75.4864493 41.0186571,74.5781609 43.0198352,73.1496493 C47.4238922,70.0066833 50.5031913,64.3334856 50.2821948,56.8521213 L50.2821948,56.4856822 C50.6887795,35.5710219 59.9022573,22.4044454 72.4099258,13.900656 C83.9127318,6.08048575 97.9283045,2.61793686 110.034272,0.63916586 C110.711913,0.472165758 111.420079,0.382057789 112.150222,0.382057789 C116.927897,0.382057789 120.802051,4.19542704 120.802051,8.89666014 C120.802051,13.3660154 117.301516,17.0316076 112.849841,17.3824279 C102.687665,19.041616 91.0798554,21.8397688 82.2119136,27.8697941 C73.9471334,33.4877256 67.848363,42.3339253 67.5235836,56.5829988 C67.8630147,70.1412445 61.7972106,80.7535604 53.1588121,86.9193484 C48.8841784,89.9698035 43.9465553,91.92815 38.7928195,92.6225821 C33.6146643,93.319417 28.2509209,92.7162944 23.15335,90.6402068 C13.4429354,86.6862691 4.88878413,77.519285 1.02561905,62.0087 C0.786307937,61.2277642 0.656884581,60.3999724 0.656884581,59.5433459 C0.656884581,54.8409114 4.53103844,51.0287436 9.30993481,51.0287436 C13.5540441,51.0287436 17.085104,54.0371483 17.8213519,58.0031004 Z" id="Path"></path>
            </g>
            <g id="Group" transform="translate(360.500000, 227.000000) rotate(-90.000000) translate(-360.500000, -227.000000) translate(352.000000, 218.000000)" fill="url(#linearGradient-12)">
                <ellipse id="Oval" cx="8.4907191" cy="9.10012052" rx="8.43067706" ry="8.50152309"></ellipse>
            </g>
            <g id="Group" transform="translate(258.000000, 278.000000) scale(-1, 1) rotate(90.000000) translate(-258.000000, -278.000000) translate(249.000000, 269.000000)" fill="#E91E63">
                <path d="M9.14690469,0.41385995 C13.8409162,0.41385995 17.6484278,4.22017189 17.6484278,8.91418344 C17.6484278,13.6093946 13.8409162,17.4157065 9.14690469,17.4157065 C4.45169355,17.4157065 0.645381603,13.6093946 0.645381603,8.91418344 C0.645381603,4.22017189 4.45169355,0.41385995 9.14690469,0.41385995" id="Path"></path>
            </g>
            <g id="Group" transform="translate(188.000000, 215.000000)" fill="#F8BBD0">
                <path d="M0.476347895,38.588946 C0.476347895,17.0513637 18.5091692,0.0688341793 40.112157,0.0688341793 C64.5439184,0.0688341793 84.7862611,22.5823268 78.5754174,46.4203554 C77.1879015,49.3131033 74.2052308,51.3143831 70.748655,51.3143831 C65.9680764,51.3143831 62.0925588,47.4867395 62.0925588,42.7664214 C62.0925588,41.3574433 62.2989762,40.0136062 62.2989762,38.588946 C62.2989762,26.8333876 52.3652905,17.303484 40.112157,17.303484 C27.8590234,17.303484 17.9265591,26.8333876 17.9265591,38.588946 C17.9265591,46.4372438 22.3529303,53.2915365 28.9411881,56.9828663 C33.1648061,59.9407554 32.7312074,63.2520953 32.7312074,64.133913 C32.7312074,68.8554374 28.8556898,72.683081 24.0751112,72.683081 C23.2616555,72.683081 22.915998,72.8435211 21.4869543,72.5853693 C9.06526686,66.1448433 0.476347895,53.4519767 0.476347895,38.588946" id="Path"></path>
            </g>
            <g id="Group" transform="translate(381.500000, 227.000000) rotate(-90.000000) translate(-381.500000, -227.000000) translate(373.000000, 218.000000)" fill="url(#linearGradient-13)">
                <ellipse id="Oval" cx="8.43480802" cy="9.2452714" rx="8.43067706" ry="8.50152309"></ellipse>
            </g>
            <g id="Group" transform="translate(382.500000, 203.000000) rotate(-90.000000) translate(-382.500000, -203.000000) translate(374.000000, 194.000000)" fill="url(#linearGradient-14)">
                <ellipse id="Oval" cx="8.58401691" cy="9.22967668" rx="8.37831261" ry="8.50152309"></ellipse>
            </g>
            <g id="Group" transform="translate(357.000000, 151.500000) rotate(90.000000) translate(-357.000000, -151.500000) translate(348.000000, 143.000000)" fill="url(#linearGradient-15)">
                <ellipse id="Oval" cx="9.06293311" cy="8.44544846" rx="8.50152309" ry="8.37831261"></ellipse>
            </g>
            <g id="Group" transform="translate(48.000000, 54.000000)" fill="#B2EBF2">
                <path d="M34.9666133,0.610305473 C56.4675758,0.872037266 73.2054002,18.8844917 72.9464685,40.2162359 C72.6538155,64.340188 49.9364763,84.0545022 26.2135188,77.6330272 C23.3411839,76.2266711 21.3793249,73.2571611 21.4214766,69.8449987 C21.4780802,65.1241773 25.3463988,61.344143 30.058955,61.4020376 C31.464412,61.4189235 32.8036307,61.6384405 34.2259483,61.6553264 C45.9621764,61.7988567 55.5944342,52.1063374 55.7413629,40.006368 C55.8882915,27.9076048 46.4932874,17.9835071 34.7582636,17.8411829 C26.9240754,17.7458981 20.0268586,22.0337162 16.263317,28.4937875 C13.2597097,32.6284262 9.95983646,32.1604449 9.07946881,32.1495897 C4.36691258,32.0916951 0.591327655,28.2187882 0.649135653,23.499173 C0.65877032,22.6946794 0.50220699,22.3509303 0.777999317,20.9445742 C7.35606785,8.75535065 20.1304313,0.429384878 34.9666133,0.610305473" id="Path"></path>
            </g>
            <g id="Group" transform="translate(358.000000, 127.000000) rotate(-90.000000) translate(-358.000000, -127.000000) translate(349.000000, 118.000000)" fill="url(#linearGradient-16)">
                <circle id="Oval" cx="9.06293311" cy="8.95137086" r="8.50152309"></circle>
            </g>
            <g id="Group" transform="translate(19.000000, 92.000000)" fill="url(#linearGradient-17)">
                <path d="M0.0884178431,33.519843 C0.0884178431,15.2667413 14.782745,0.332831775 32.743015,0.332831775 L94.341789,0.332831775 C112.303267,0.332831775 126.997594,15.2667413 126.997594,33.519843 C126.997594,51.7741723 112.303267,66.7080818 94.341789,66.7080818 L32.743015,66.7080818 C14.782745,66.7080818 0.0884178431,51.7741723 0.0884178431,33.519843 Z M17.3433215,33.519843 C17.3433215,24.9125297 24.2737875,17.8690665 32.743015,17.8690665 L94.3429968,17.8690665 C102.812224,17.8690665 109.74269,24.9125297 109.74269,33.519843 C109.74269,42.1283839 102.812224,49.1706196 94.3429968,49.1706196 L32.743015,49.1706196 C24.2737875,49.1706196 17.3433215,42.1283839 17.3433215,33.519843 Z" id="Shape"></path>
            </g>
            <g id="Group" transform="translate(27.500000, 126.000000) scale(-1, 1) translate(-27.500000, -126.000000) translate(19.000000, 117.000000)" fill="#00BCD4">
                <path d="M8.51094226,0.258479617 C3.85485788,0.258479617 0.0814547959,4.06479156 0.0814547959,8.75880311 C0.0814547959,13.4540143 3.85485788,17.2603262 8.51094226,17.2603262 C13.1670266,17.2603262 16.9416193,13.4540143 16.9416193,8.75880311 C16.9416193,4.06479156 13.1670266,0.258479617 8.51094226,0.258479617" id="Path"></path>
            </g>
            <g id="Group" transform="translate(137.500000, 124.500000) scale(-1, 1) translate(-137.500000, -124.500000) translate(128.000000, 115.000000)" fill="#FF9800">
                <path d="M9.20710116,0.325843821 C4.1850279,0.325843821 0.114187287,4.49568284 0.114187287,9.63824381 C0.114187287,14.7808048 4.1850279,18.9506438 9.20710116,18.9506438 C14.2291744,18.9506438 18.3012237,14.7808048 18.3012237,9.63824381 C18.3012237,4.49568284 14.2291744,0.325843821 9.20710116,0.325843821" id="Path"></path>
            </g>
            <g id="Group" transform="translate(255.000000, 79.000000)" fill="#FFE0B2">
                <path d="M6.64473449,80.448392 C7.73414655,80.4213844 8.81746569,80.3698243 9.89347335,80.2924843 L9.91053349,80.2949395 L9.91053349,80.2924843 C44.7107901,77.7979605 72.177622,48.5695566 72.177622,12.8740506 C72.177622,11.8968651 72.1520318,10.9258178 72.1118186,9.95845321 L72.1435017,9.95599797 C72.1264415,9.81113882 72.1130371,9.66505204 72.1032885,9.51773764 C71.7828015,4.72388165 75.3812733,0.575753767 80.1398349,0.254117334 C84.80944,-0.0626086186 88.8624428,3.4238321 89.313318,8.08510514 C89.4010559,9.66996252 89.4485806,11.2670961 89.4485806,12.8740506 C89.4485806,58.7317947 53.3980592,96.099319 8.29103839,97.7995727 L8.3105357,97.5970154 C8.16552448,97.5908773 8.01929467,97.5810563 7.87428345,97.5675525 C3.1254705,97.1219265 -0.365766112,92.8829547 0.0765790504,88.0989197 C0.427530584,84.2982082 3.15593504,81.297905 6.64473449,80.448392" id="Path"></path>
            </g>
            <g id="Group" transform="translate(325.000000, 245.000000)" fill="url(#linearGradient-18)">
                <path d="M0.537162659,33.4903828 C0.537162659,15.2372811 15.1899001,0.30337149 33.0993368,0.30337149 L67.12004,0.30337149 L67.12004,17.8396063 L33.0993368,17.8396063 C24.6540799,17.8396063 17.7432294,24.8830694 17.7432294,33.4903828 C17.7432294,42.0989236 24.6540799,49.1411593 33.0993368,49.1411593 L67.12004,49.1411593 L67.12004,66.6786215 L33.0993368,66.6786215 C15.1899001,66.6786215 0.537162659,51.744712 0.537162659,33.4903828 Z" id="Path"></path>
                <path d="M65.0804564,33.4903828 C65.0804564,15.2372811 79.7331938,0.30337149 97.6426305,0.30337149 L131.663334,0.30337149 L131.663334,17.8396063 L97.6426305,17.8396063 C89.1973736,17.8396063 82.2865231,24.8830694 82.2865231,33.4903828 C82.2865231,42.0989236 89.1973736,49.1411593 97.6426305,49.1411593 L131.663334,49.1411593 L131.663334,66.6786215 L97.6426305,66.6786215 C79.7331938,66.6786215 65.0804564,51.744712 65.0804564,33.4903828 Z" id="Path" transform="translate(98.371895, 33.490997) scale(-1, 1) translate(-98.371895, -33.490997) "></path>
            </g>
            <g id="Group" transform="translate(332.500000, 277.500000) scale(-1, 1) translate(-332.500000, -277.500000) translate(323.000000, 268.000000)" fill="#FF9800">
                <path d="M9.28630297,0.296986804 C4.26422971,0.296986804 0.192180421,4.46682582 0.192180421,9.60938679 C0.192180421,14.7519478 4.26422971,18.9217868 9.28630297,18.9217868 C14.3083762,18.9217868 18.3792168,14.7519478 18.3792168,9.60938679 C18.3792168,4.46682582 14.3083762,0.296986804 9.28630297,0.296986804" id="Path"></path>
            </g>
            <g id="Group" transform="translate(117.125058, 53.015712) rotate(-40.142279) translate(-117.125058, -53.015712) translate(94.625058, 3.515712)" fill="url(#linearGradient-19)">
                <path d="M16.3859575,2.90964064 C47.7261641,28.9625758 53.2200793,65.1265252 32.1185882,94.8600387 C23.0005101,104.52745 11.0632339,95.157386 16.3859575,86.8268288 C30.0764301,63.7437397 34.7580958,43.0406372 6.21280484,18.2000568 C-8.59709091,6.83921714 6.98377416,-5.74002085 16.3859575,2.90964064 Z" id="Path"></path>
            </g>
            <g id="Group" transform="translate(0.000000, 178.000000)" fill="url(#linearGradient-20)">
                <path d="M0.385769531,8.80861917 C0.385769531,4.13260153 4.30366455,0.307096079 9.09138386,0.307096079 L36.9527897,0.307096079 C41.7417376,0.307096079 45.6596326,4.13260153 45.6596326,8.80861917 C45.6596326,13.4834372 41.7417376,17.3089427 36.9527897,17.3089427 L9.09138386,17.3089427 C4.30366455,17.3089427 0.385769531,13.4834372 0.385769531,8.80861917 Z" id="Path"></path>
            </g>
            <g id="Group" transform="translate(358.500000, 101.000000) rotate(90.000000) translate(-358.500000, -101.000000) translate(350.000000, 92.000000)" fill="url(#linearGradient-21)">
                <ellipse id="Oval" cx="8.47945056" cy="8.78879296" rx="8.43067706" ry="8.50152309"></ellipse>
            </g>
            <g id="Group" transform="translate(157.000000, 187.000000)" fill="#E91E63">
                <path d="M57.590376,17.0376584 C36.8870677,19.4583888 19.9206134,35.6455425 17.7201157,56.8008781 C17.6027719,57.9401847 17.5289785,59.0735697 17.4987352,60.1998488 C16.9386305,64.7274672 12.7759518,68.0020853 8.12091321,67.5378357 C3.4114368,67.0688488 -0.0193556698,62.9486331 0.459697158,58.3381129 C0.475423639,58.1959957 0.49356958,58.0562471 0.515344708,57.9164985 L0.440341488,57.9093926 C0.49356958,56.9749717 0.564943612,56.0393666 0.66293169,55.1002085 C3.78403344,25.0838629 28.5036432,2.33089261 58.1904018,0.113863652 L58.1976602,0.112252184 C58.336779,0.111495031 58.4771076,0.112252184 58.618646,0.117416583 C63.3498975,0.276114168 67.0540888,4.16065209 66.8919851,8.79248983 C66.7298813,13.4243276 62.761969,17.0518701 58.0307175,16.8919882 C57.8843402,16.887251 57.7403825,16.8789608 57.5964247,16.8671177 L57.590376,17.0376584 Z" id="Path"></path>
            </g>
            <g id="Group" transform="translate(75.921007, 28.675497) rotate(48.002507) translate(-75.921007, -28.675497) translate(66.921007, 19.675497)" fill="url(#linearGradient-22)">
                <ellipse id="Oval" cx="9.12172078" cy="8.61943619" rx="8.60450082" ry="8.56625675"></ellipse>
            </g>
        </g>
    </g>
</svg>